{
    "asset" : {
        "generator" : "Khronos glTF Blender I/O v1.6.16",
        "version" : "2.0"
    },
    "scene" : 0,
    "scenes" : [
        {
            "name" : "Scene",
            "nodes" : [
                0,
                1,
                2,
                3,
                4,
                5
            ]
        }
    ],
    "nodes" : [
        {
            "mesh" : 0,
            "name" : "Curve.025",
            "translation" : [
                0.3502240478992462,
                0,
                -0.3363635540008545
            ]
        },
        {
            "mesh" : 1,
            "name" : "Curve.026",
            "translation" : [
                0.3502240478992462,
                0,
                -0.3363635540008545
            ]
        },
        {
            "mesh" : 2,
            "name" : "Curve.027",
            "translation" : [
                0.3502240478992462,
                0,
                -0.3363635540008545
            ]
        },
        {
            "mesh" : 3,
            "name" : "Curve.028",
            "translation" : [
                0.3502240478992462,
                0,
                -0.3363635540008545
            ]
        },
        {
            "mesh" : 4,
            "name" : "Curve.029",
            "translation" : [
                0.3502240478992462,
                0,
                -0.3363635540008545
            ]
        },
        {
            "mesh" : 5,
            "name" : "Cannon.010",
            "translation" : [
                0.3502240478992462,
                0,
                -0.3363635540008545
            ]
        }
    ],
    "materials" : [
        {
            "doubleSided" : true,
            "name" : "SVGMat.036",
            "pbrMetallicRoughness" : {
                "baseColorFactor" : [
                    0.012983032502233982,
                    0.03560131415724754,
                    0.0666259378194809,
                    1
                ],
                "metallicFactor" : 0,
                "roughnessFactor" : 0.4000000059604645
            }
        },
        {
            "doubleSided" : true,
            "name" : "SVGMat.037",
            "pbrMetallicRoughness" : {
                "baseColorFactor" : [
                    0.9473065137863159,
                    0.9473065137863159,
                    0.9473065137863159,
                    1
                ],
                "metallicFactor" : 0,
                "roughnessFactor" : 0.4000000059604645
            }
        },
        {
            "doubleSided" : true,
            "name" : "SVGMat.038",
            "pbrMetallicRoughness" : {
                "baseColorFactor" : [
                    0.838798999786377,
                    0.12477181851863861,
                    0.08650045841932297,
                    1
                ],
                "metallicFactor" : 0,
                "roughnessFactor" : 0.4000000059604645
            }
        },
        {
            "doubleSided" : true,
            "name" : "SVGMat.040",
            "pbrMetallicRoughness" : {
                "baseColorFactor" : [
                    0.10224173218011856,
                    0.577580451965332,
                    0.9473065137863159,
                    1
                ],
                "metallicFactor" : 0,
                "roughnessFactor" : 0.4000000059604645
            }
        },
        {
            "doubleSided" : true,
            "name" : "SVGMat.044",
            "pbrMetallicRoughness" : {
                "baseColorFactor" : [
                    0.7011018991470337,
                    0.7758222222328186,
                    0.04666508734226227,
                    1
                ],
                "metallicFactor" : 0,
                "roughnessFactor" : 0.4000000059604645
            }
        },
        {
            "doubleSided" : true,
            "name" : "SVGMat.034",
            "pbrMetallicRoughness" : {
                "baseColorFactor" : [
                    0.026241222396492958,
                    0.026241222396492958,
                    0.0423114113509655,
                    1
                ],
                "metallicFactor" : 0,
                "roughnessFactor" : 0.4000000059604645
            }
        }
    ],
    "meshes" : [
        {
            "name" : "Curve.049",
            "primitives" : [
                {
                    "attributes" : {
                        "POSITION" : 0,
                        "NORMAL" : 1,
                        "TEXCOORD_0" : 2
                    },
                    "indices" : 3,
                    "material" : 0
                }
            ]
        },
        {
            "name" : "Curve.050",
            "primitives" : [
                {
                    "attributes" : {
                        "POSITION" : 4,
                        "NORMAL" : 5,
                        "TEXCOORD_0" : 6
                    },
                    "indices" : 7,
                    "material" : 1
                }
            ]
        },
        {
            "name" : "Curve.051",
            "primitives" : [
                {
                    "attributes" : {
                        "POSITION" : 8,
                        "NORMAL" : 9,
                        "TEXCOORD_0" : 10
                    },
                    "indices" : 11,
                    "material" : 2
                }
            ]
        },
        {
            "name" : "Curve.052",
            "primitives" : [
                {
                    "attributes" : {
                        "POSITION" : 12,
                        "NORMAL" : 13,
                        "TEXCOORD_0" : 14
                    },
                    "indices" : 15,
                    "material" : 3
                }
            ]
        },
        {
            "name" : "Curve.053",
            "primitives" : [
                {
                    "attributes" : {
                        "POSITION" : 16,
                        "NORMAL" : 17,
                        "TEXCOORD_0" : 18
                    },
                    "indices" : 19,
                    "material" : 4
                }
            ]
        },
        {
            "name" : "Curve.048",
            "primitives" : [
                {
                    "attributes" : {
                        "POSITION" : 20,
                        "NORMAL" : 21,
                        "TEXCOORD_0" : 22
                    },
                    "indices" : 23,
                    "material" : 5
                }
            ]
        }
    ],
    "accessors" : [
        {
            "bufferView" : 0,
            "componentType" : 5126,
            "count" : 487,
            "max" : [
                0.3340659439563751,
                0.029999999329447746,
                0.31474941968917847
            ],
            "min" : [
                -0.32860538363456726,
                -0.029999999329447746,
                -0.3312186598777771
            ],
            "type" : "VEC3"
        },
        {
            "bufferView" : 1,
            "componentType" : 5126,
            "count" : 487,
            "type" : "VEC3"
        },
        {
            "bufferView" : 2,
            "componentType" : 5126,
            "count" : 487,
            "type" : "VEC2"
        },
        {
            "bufferView" : 3,
            "componentType" : 5123,
            "count" : 1008,
            "type" : "SCALAR"
        },
        {
            "bufferView" : 4,
            "componentType" : 5126,
            "count" : 1130,
            "max" : [
                0.3556846082210541,
                0.03999999910593033,
                0.33582741022109985
            ],
            "min" : [
                -0.3502240478992462,
                -0.03999999910593033,
                -0.3522966504096985
            ],
            "type" : "VEC3"
        },
        {
            "bufferView" : 5,
            "componentType" : 5126,
            "count" : 1130,
            "type" : "VEC3"
        },
        {
            "bufferView" : 6,
            "componentType" : 5126,
            "count" : 1130,
            "type" : "VEC2"
        },
        {
            "bufferView" : 7,
            "componentType" : 5123,
            "count" : 2172,
            "type" : "SCALAR"
        },
        {
            "bufferView" : 8,
            "componentType" : 5126,
            "count" : 1206,
            "max" : [
                0.22497515380382538,
                0.03999999910593033,
                0.17119024693965912
            ],
            "min" : [
                0.015684545040130615,
                -0.03999999910593033,
                -0.011990808881819248
            ],
            "type" : "VEC3"
        },
        {
            "bufferView" : 9,
            "componentType" : 5126,
            "count" : 1206,
            "type" : "VEC3"
        },
        {
            "bufferView" : 10,
            "componentType" : 5126,
            "count" : 1206,
            "type" : "VEC2"
        },
        {
            "bufferView" : 11,
            "componentType" : 5123,
            "count" : 2298,
            "type" : "SCALAR"
        },
        {
            "bufferView" : 12,
            "componentType" : 5126,
            "count" : 1068,
            "max" : [
                0.09521903842687607,
                0.03999999910593033,
                -0.012453050352633
            ],
            "min" : [
                -0.08933760225772858,
                -0.03999999910593033,
                -0.23926928639411926
            ],
            "type" : "VEC3"
        },
        {
            "bufferView" : 13,
            "componentType" : 5126,
            "count" : 1068,
            "type" : "VEC3"
        },
        {
            "bufferView" : 14,
            "componentType" : 5126,
            "count" : 1068,
            "type" : "VEC2"
        },
        {
            "bufferView" : 15,
            "componentType" : 5123,
            "count" : 1860,
            "type" : "SCALAR"
        },
        {
            "bufferView" : 16,
            "componentType" : 5126,
            "count" : 1004,
            "max" : [
                -0.009300129488110542,
                0.03999999910593033,
                0.1717272251844406
            ],
            "min" : [
                -0.21897101402282715,
                -0.03999999910593033,
                -0.012197391130030155
            ],
            "type" : "VEC3"
        },
        {
            "bufferView" : 17,
            "componentType" : 5126,
            "count" : 1004,
            "type" : "VEC3"
        },
        {
            "bufferView" : 18,
            "componentType" : 5126,
            "count" : 1004,
            "type" : "VEC2"
        },
        {
            "bufferView" : 19,
            "componentType" : 5123,
            "count" : 1722,
            "type" : "SCALAR"
        },
        {
            "bufferView" : 20,
            "componentType" : 5126,
            "count" : 34,
            "max" : [
                0.35630595684051514,
                0.05999999865889549,
                0.3356863856315613
            ],
            "min" : [
                -0.3479093611240387,
                -0.05999999865889549,
                -0.36838018894195557
            ],
            "type" : "VEC3"
        },
        {
            "bufferView" : 21,
            "componentType" : 5126,
            "count" : 34,
            "type" : "VEC3"
        },
        {
            "bufferView" : 22,
            "componentType" : 5126,
            "count" : 34,
            "type" : "VEC2"
        },
        {
            "bufferView" : 23,
            "componentType" : 5123,
            "count" : 84,
            "type" : "SCALAR"
        }
    ],
    "bufferViews" : [
        {
            "buffer" : 0,
            "byteLength" : 5844,
            "byteOffset" : 0
        },
        {
            "buffer" : 0,
            "byteLength" : 5844,
            "byteOffset" : 5844
        },
        {
            "buffer" : 0,
            "byteLength" : 3896,
            "byteOffset" : 11688
        },
        {
            "buffer" : 0,
            "byteLength" : 2016,
            "byteOffset" : 15584
        },
        {
            "buffer" : 0,
            "byteLength" : 13560,
            "byteOffset" : 17600
        },
        {
            "buffer" : 0,
            "byteLength" : 13560,
            "byteOffset" : 31160
        },
        {
            "buffer" : 0,
            "byteLength" : 9040,
            "byteOffset" : 44720
        },
        {
            "buffer" : 0,
            "byteLength" : 4344,
            "byteOffset" : 53760
        },
        {
            "buffer" : 0,
            "byteLength" : 14472,
            "byteOffset" : 58104
        },
        {
            "buffer" : 0,
            "byteLength" : 14472,
            "byteOffset" : 72576
        },
        {
            "buffer" : 0,
            "byteLength" : 9648,
            "byteOffset" : 87048
        },
        {
            "buffer" : 0,
            "byteLength" : 4596,
            "byteOffset" : 96696
        },
        {
            "buffer" : 0,
            "byteLength" : 12816,
            "byteOffset" : 101292
        },
        {
            "buffer" : 0,
            "byteLength" : 12816,
            "byteOffset" : 114108
        },
        {
            "buffer" : 0,
            "byteLength" : 8544,
            "byteOffset" : 126924
        },
        {
            "buffer" : 0,
            "byteLength" : 3720,
            "byteOffset" : 135468
        },
        {
            "buffer" : 0,
            "byteLength" : 12048,
            "byteOffset" : 139188
        },
        {
            "buffer" : 0,
            "byteLength" : 12048,
            "byteOffset" : 151236
        },
        {
            "buffer" : 0,
            "byteLength" : 8032,
            "byteOffset" : 163284
        },
        {
            "buffer" : 0,
            "byteLength" : 3444,
            "byteOffset" : 171316
        },
        {
            "buffer" : 0,
            "byteLength" : 408,
            "byteOffset" : 174760
        },
        {
            "buffer" : 0,
            "byteLength" : 408,
            "byteOffset" : 175168
        },
        {
            "buffer" : 0,
            "byteLength" : 272,
            "byteOffset" : 175576
        },
        {
            "buffer" : 0,
            "byteLength" : 168,
            "byteOffset" : 175848
        }
    ],
    "buffers" : [
        {
            "byteLength" : 176016,
            "uri" : "data:application/octet-stream;base64,"
        }
    ]
}
