{
    "asset" : {
        "generator" : "Khronos glTF Blender I/O v1.6.16",
        "version" : "2.0"
    },
    "scene" : 0,
    "scenes" : [
        {
            "name" : "Scene",
            "nodes" : [
                0,
                1,
                2,
                3,
                4,
                5,
                6
            ]
        }
    ],
    "nodes" : [
        {
            "mesh" : 0,
            "name" : "Curve.013",
            "translation" : [
                0.23373541235923767,
                0,
                -0.359920859336853
            ]
        },
        {
            "mesh" : 1,
            "name" : "Curve.008",
            "translation" : [
                0.23373541235923767,
                0,
                -0.359920859336853
            ]
        },
        {
            "mesh" : 2,
            "name" : "Curve.009",
            "translation" : [
                0.23373541235923767,
                0,
                -0.359920859336853
            ]
        },
        {
            "mesh" : 3,
            "name" : "Curve.010",
            "translation" : [
                0.23373541235923767,
                0,
                -0.359920859336853
            ]
        },
        {
            "mesh" : 4,
            "name" : "Curve.011",
            "translation" : [
                0.23373541235923767,
                0,
                -0.359920859336853
            ]
        },
        {
            "mesh" : 5,
            "name" : "Curve.012",
            "translation" : [
                0.23373541235923767,
                0,
                -0.359920859336853
            ]
        },
        {
            "mesh" : 6,
            "name" : "Cannon",
            "translation" : [
                0.23373541235923767,
                0,
                -0.359920859336853
            ]
        }
    ],
    "materials" : [
        {
            "doubleSided" : true,
            "name" : "SVGMat.052",
            "pbrMetallicRoughness" : {
                "baseColorFactor" : [
                    0.026241222396492958,
                    0.026241222396492958,
                    0.0423114113509655,
                    1
                ],
                "metallicFactor" : 0,
                "roughnessFactor" : 0.4000000059604645
            }
        },
        {
            "doubleSided" : true,
            "name" : "SVGMat.053",
            "pbrMetallicRoughness" : {
                "baseColorFactor" : [
                    0.0030352699104696512,
                    0.6239603757858276,
                    0.22696587443351746,
                    1
                ],
                "metallicFactor" : 0,
                "roughnessFactor" : 0.4000000059604645
            }
        },
        {
            "doubleSided" : true,
            "name" : "SVGMat.054",
            "pbrMetallicRoughness" : {
                "baseColorFactor" : [
                    0.3613067865371704,
                    0.09989872574806213,
                    1,
                    1
                ],
                "metallicFactor" : 0,
                "roughnessFactor" : 0.4000000059604645
            }
        },
        {
            "doubleSided" : true,
            "name" : "SVGMat.055",
            "pbrMetallicRoughness" : {
                "baseColorFactor" : [
                    0.8879231214523315,
                    0.07618538290262222,
                    0.012983032502233982,
                    1
                ],
                "metallicFactor" : 0,
                "roughnessFactor" : 0.4000000059604645
            }
        },
        {
            "doubleSided" : true,
            "name" : "SVGMat.056",
            "pbrMetallicRoughness" : {
                "baseColorFactor" : [
                    1,
                    0.16826939582824707,
                    0.12213877588510513,
                    1
                ],
                "metallicFactor" : 0,
                "roughnessFactor" : 0.4000000059604645
            }
        },
        {
            "doubleSided" : true,
            "name" : "SVGMat.057",
            "pbrMetallicRoughness" : {
                "baseColorFactor" : [
                    0.01032982300966978,
                    0.5028864741325378,
                    0.9911020994186401,
                    1
                ],
                "metallicFactor" : 0,
                "roughnessFactor" : 0.4000000059604645
            }
        },
        {
            "doubleSided" : true,
            "name" : "SVGMat.058",
            "pbrMetallicRoughness" : {
                "baseColorFactor" : [
                    0.026241222396492958,
                    0.026241222396492958,
                    0.0423114113509655,
                    1
                ],
                "metallicFactor" : 0,
                "roughnessFactor" : 0.4000000059604645
            }
        }
    ],
    "meshes" : [
        {
            "name" : "Curve.035",
            "primitives" : [
                {
                    "attributes" : {
                        "POSITION" : 0,
                        "NORMAL" : 1,
                        "TEXCOORD_0" : 2
                    },
                    "indices" : 3,
                    "material" : 0
                }
            ]
        },
        {
            "name" : "Curve.036",
            "primitives" : [
                {
                    "attributes" : {
                        "POSITION" : 4,
                        "NORMAL" : 5,
                        "TEXCOORD_0" : 6
                    },
                    "indices" : 7,
                    "material" : 1
                }
            ]
        },
        {
            "name" : "Curve.037",
            "primitives" : [
                {
                    "attributes" : {
                        "POSITION" : 8,
                        "NORMAL" : 9,
                        "TEXCOORD_0" : 10
                    },
                    "indices" : 11,
                    "material" : 2
                }
            ]
        },
        {
            "name" : "Curve.038",
            "primitives" : [
                {
                    "attributes" : {
                        "POSITION" : 12,
                        "NORMAL" : 13,
                        "TEXCOORD_0" : 14
                    },
                    "indices" : 15,
                    "material" : 3
                }
            ]
        },
        {
            "name" : "Curve.039",
            "primitives" : [
                {
                    "attributes" : {
                        "POSITION" : 16,
                        "NORMAL" : 17,
                        "TEXCOORD_0" : 18
                    },
                    "indices" : 19,
                    "material" : 4
                }
            ]
        },
        {
            "name" : "Curve.040",
            "primitives" : [
                {
                    "attributes" : {
                        "POSITION" : 20,
                        "NORMAL" : 21,
                        "TEXCOORD_0" : 22
                    },
                    "indices" : 23,
                    "material" : 5
                }
            ]
        },
        {
            "name" : "Curve.041",
            "primitives" : [
                {
                    "attributes" : {
                        "POSITION" : 24,
                        "NORMAL" : 25,
                        "TEXCOORD_0" : 26
                    },
                    "indices" : 27,
                    "material" : 6
                }
            ]
        }
    ],
    "accessors" : [
        {
            "bufferView" : 0,
            "componentType" : 5126,
            "count" : 600,
            "max" : [
                0.3542865812778473,
                0.029999999329447746,
                0.359920859336853
            ],
            "min" : [
                -0.35128337144851685,
                -0.029999999329447746,
                -0.345500111579895
            ],
            "type" : "VEC3"
        },
        {
            "bufferView" : 1,
            "componentType" : 5126,
            "count" : 600,
            "type" : "VEC3"
        },
        {
            "bufferView" : 2,
            "componentType" : 5126,
            "count" : 600,
            "type" : "VEC2"
        },
        {
            "bufferView" : 3,
            "componentType" : 5123,
            "count" : 1008,
            "type" : "SCALAR"
        },
        {
            "bufferView" : 4,
            "componentType" : 5126,
            "count" : 302,
            "max" : [
                0.001501619815826416,
                0.03999999910593033,
                0.2592431902885437
            ],
            "min" : [
                -0.16653692722320557,
                -0.03999999910593033,
                0.09124013781547546
            ],
            "type" : "VEC3"
        },
        {
            "bufferView" : 5,
            "componentType" : 5126,
            "count" : 302,
            "type" : "VEC3"
        },
        {
            "bufferView" : 6,
            "componentType" : 5126,
            "count" : 302,
            "type" : "VEC2"
        },
        {
            "bufferView" : 7,
            "componentType" : 5123,
            "count" : 576,
            "type" : "SCALAR"
        },
        {
            "bufferView" : 8,
            "componentType" : 5126,
            "count" : 206,
            "max" : [
                0.0014733970165252686,
                0.03999999910593033,
                0.09124013781547546
            ],
            "min" : [
                -0.1665651500225067,
                -0.03999999910593033,
                -0.07679116725921631
            ],
            "type" : "VEC3"
        },
        {
            "bufferView" : 9,
            "componentType" : 5126,
            "count" : 206,
            "type" : "VEC3"
        },
        {
            "bufferView" : 10,
            "componentType" : 5126,
            "count" : 206,
            "type" : "VEC2"
        },
        {
            "bufferView" : 11,
            "componentType" : 5123,
            "count" : 444,
            "type" : "SCALAR"
        },
        {
            "bufferView" : 12,
            "componentType" : 5126,
            "count" : 194,
            "max" : [
                0.0014733970165252686,
                0.03999999910593033,
                -0.07679116725921631
            ],
            "min" : [
                -0.1665651500225067,
                -0.03999999910593033,
                -0.2448224425315857
            ],
            "type" : "VEC3"
        },
        {
            "bufferView" : 13,
            "componentType" : 5126,
            "count" : 194,
            "type" : "VEC3"
        },
        {
            "bufferView" : 14,
            "componentType" : 5126,
            "count" : 194,
            "type" : "VEC2"
        },
        {
            "bufferView" : 15,
            "componentType" : 5123,
            "count" : 444,
            "type" : "SCALAR"
        },
        {
            "bufferView" : 16,
            "componentType" : 5126,
            "count" : 243,
            "max" : [
                0.1695401668548584,
                0.03999999910593033,
                -0.07681936025619507
            ],
            "min" : [
                0.001501619815826416,
                -0.03999999910593033,
                -0.2448224425315857
            ],
            "type" : "VEC3"
        },
        {
            "bufferView" : 17,
            "componentType" : 5126,
            "count" : 243,
            "type" : "VEC3"
        },
        {
            "bufferView" : 18,
            "componentType" : 5126,
            "count" : 243,
            "type" : "VEC2"
        },
        {
            "bufferView" : 19,
            "componentType" : 5123,
            "count" : 444,
            "type" : "SCALAR"
        },
        {
            "bufferView" : 20,
            "componentType" : 5126,
            "count" : 270,
            "max" : [
                0.16956838965415955,
                0.03999999910593033,
                0.09121188521385193
            ],
            "min" : [
                0.001501619815826416,
                -0.03999999910593033,
                -0.07679116725921631
            ],
            "type" : "VEC3"
        },
        {
            "bufferView" : 21,
            "componentType" : 5126,
            "count" : 270,
            "type" : "VEC3"
        },
        {
            "bufferView" : 22,
            "componentType" : 5126,
            "count" : 270,
            "type" : "VEC2"
        },
        {
            "bufferView" : 23,
            "componentType" : 5123,
            "count" : 564,
            "type" : "SCALAR"
        },
        {
            "bufferView" : 24,
            "componentType" : 5126,
            "count" : 34,
            "max" : [
                0.3536092936992645,
                0.05999999865889549,
                0.3592436909675598
            ],
            "min" : [
                -0.3506060242652893,
                -0.05999999865889549,
                -0.34482288360595703
            ],
            "type" : "VEC3"
        },
        {
            "bufferView" : 25,
            "componentType" : 5126,
            "count" : 34,
            "type" : "VEC3"
        },
        {
            "bufferView" : 26,
            "componentType" : 5126,
            "count" : 34,
            "type" : "VEC2"
        },
        {
            "bufferView" : 27,
            "componentType" : 5123,
            "count" : 84,
            "type" : "SCALAR"
        }
    ],
    "bufferViews" : [
        {
            "buffer" : 0,
            "byteLength" : 7200,
            "byteOffset" : 0
        },
        {
            "buffer" : 0,
            "byteLength" : 7200,
            "byteOffset" : 7200
        },
        {
            "buffer" : 0,
            "byteLength" : 4800,
            "byteOffset" : 14400
        },
        {
            "buffer" : 0,
            "byteLength" : 2016,
            "byteOffset" : 19200
        },
        {
            "buffer" : 0,
            "byteLength" : 3624,
            "byteOffset" : 21216
        },
        {
            "buffer" : 0,
            "byteLength" : 3624,
            "byteOffset" : 24840
        },
        {
            "buffer" : 0,
            "byteLength" : 2416,
            "byteOffset" : 28464
        },
        {
            "buffer" : 0,
            "byteLength" : 1152,
            "byteOffset" : 30880
        },
        {
            "buffer" : 0,
            "byteLength" : 2472,
            "byteOffset" : 32032
        },
        {
            "buffer" : 0,
            "byteLength" : 2472,
            "byteOffset" : 34504
        },
        {
            "buffer" : 0,
            "byteLength" : 1648,
            "byteOffset" : 36976
        },
        {
            "buffer" : 0,
            "byteLength" : 888,
            "byteOffset" : 38624
        },
        {
            "buffer" : 0,
            "byteLength" : 2328,
            "byteOffset" : 39512
        },
        {
            "buffer" : 0,
            "byteLength" : 2328,
            "byteOffset" : 41840
        },
        {
            "buffer" : 0,
            "byteLength" : 1552,
            "byteOffset" : 44168
        },
        {
            "buffer" : 0,
            "byteLength" : 888,
            "byteOffset" : 45720
        },
        {
            "buffer" : 0,
            "byteLength" : 2916,
            "byteOffset" : 46608
        },
        {
            "buffer" : 0,
            "byteLength" : 2916,
            "byteOffset" : 49524
        },
        {
            "buffer" : 0,
            "byteLength" : 1944,
            "byteOffset" : 52440
        },
        {
            "buffer" : 0,
            "byteLength" : 888,
            "byteOffset" : 54384
        },
        {
            "buffer" : 0,
            "byteLength" : 3240,
            "byteOffset" : 55272
        },
        {
            "buffer" : 0,
            "byteLength" : 3240,
            "byteOffset" : 58512
        },
        {
            "buffer" : 0,
            "byteLength" : 2160,
            "byteOffset" : 61752
        },
        {
            "buffer" : 0,
            "byteLength" : 1128,
            "byteOffset" : 63912
        },
        {
            "buffer" : 0,
            "byteLength" : 408,
            "byteOffset" : 65040
        },
        {
            "buffer" : 0,
            "byteLength" : 408,
            "byteOffset" : 65448
        },
        {
            "buffer" : 0,
            "byteLength" : 272,
            "byteOffset" : 65856
        },
        {
            "buffer" : 0,
            "byteLength" : 168,
            "byteOffset" : 66128
        }
    ],
    "buffers" : [
        {
            "byteLength" : 66296,
            "uri" : "data:application/octet-stream;base64,"
        }
    ]
}
