{
    "asset" : {
        "generator" : "Khronos glTF Blender I/O v1.6.16",
        "version" : "2.0"
    },
    "scene" : 0,
    "scenes" : [
        {
            "name" : "Scene",
            "nodes" : [
                0,
                1,
                2,
                3,
                4
            ]
        }
    ],
    "nodes" : [
        {
            "mesh" : 0,
            "name" : "Curve.041",
            "translation" : [
                0.3502240478992462,
                0,
                -0.3363635540008545
            ]
        },
        {
            "mesh" : 1,
            "name" : "Curve.036",
            "translation" : [
                0.3502240478992462,
                0,
                -0.3363635540008545
            ]
        },
        {
            "mesh" : 2,
            "name" : "Curve.039",
            "translation" : [
                0.3502240478992462,
                0,
                -0.3363635540008545
            ]
        },
        {
            "mesh" : 3,
            "name" : "Curve.040",
            "translation" : [
                0.3502240478992462,
                0,
                -0.3363635540008545
            ]
        },
        {
            "mesh" : 4,
            "name" : "Cannon",
            "translation" : [
                0.3502240478992462,
                0,
                -0.3363635540008545
            ]
        }
    ],
    "materials" : [
        {
            "doubleSided" : true,
            "name" : "SVGMat.097",
            "pbrMetallicRoughness" : {
                "baseColorFactor" : [
                    0.8879231214523315,
                    0.40724021196365356,
                    0.03688944876194,
                    1
                ],
                "metallicFactor" : 0,
                "roughnessFactor" : 0.4000000059604645
            }
        },
        {
            "doubleSided" : true,
            "name" : "SVGMat.098",
            "pbrMetallicRoughness" : {
                "baseColorFactor" : [
                    0.8962693810462952,
                    0.4019777774810791,
                    0.03560131415724754,
                    1
                ],
                "metallicFactor" : 0,
                "roughnessFactor" : 0.4000000059604645
            }
        },
        {
            "doubleSided" : true,
            "name" : "SVGMat.099",
            "pbrMetallicRoughness" : {
                "baseColorFactor" : [
                    0.9130986332893372,
                    0.6038273572921753,
                    0.08865558356046677,
                    1
                ],
                "metallicFactor" : 0,
                "roughnessFactor" : 0.4000000059604645
            }
        },
        {
            "doubleSided" : true,
            "name" : "SVGMat.100",
            "pbrMetallicRoughness" : {
                "baseColorFactor" : [
                    0.8069522380828857,
                    0.2541520893573761,
                    0.026241222396492958,
                    1
                ],
                "metallicFactor" : 0,
                "roughnessFactor" : 0.4000000059604645
            }
        },
        {
            "doubleSided" : true,
            "name" : "SVGMat.105",
            "pbrMetallicRoughness" : {
                "baseColorFactor" : [
                    0,
                    0.012983032502233982,
                    0.03688944876194,
                    1
                ],
                "metallicFactor" : 0,
                "roughnessFactor" : 0.4000000059604645
            }
        }
    ],
    "meshes" : [
        {
            "name" : "path-1_1_.003",
            "primitives" : [
                {
                    "attributes" : {
                        "POSITION" : 0,
                        "NORMAL" : 1,
                        "TEXCOORD_0" : 2
                    },
                    "indices" : 3,
                    "material" : 0
                }
            ]
        },
        {
            "name" : "path-3_1_.003",
            "primitives" : [
                {
                    "attributes" : {
                        "POSITION" : 4,
                        "NORMAL" : 5,
                        "TEXCOORD_0" : 6
                    },
                    "indices" : 7,
                    "material" : 1
                }
            ]
        },
        {
            "name" : "Curve.079",
            "primitives" : [
                {
                    "attributes" : {
                        "POSITION" : 8,
                        "NORMAL" : 9,
                        "TEXCOORD_0" : 10
                    },
                    "indices" : 11,
                    "material" : 2
                }
            ]
        },
        {
            "name" : "Curve.081",
            "primitives" : [
                {
                    "attributes" : {
                        "POSITION" : 12,
                        "NORMAL" : 13,
                        "TEXCOORD_0" : 14
                    },
                    "indices" : 15,
                    "material" : 3
                }
            ]
        },
        {
            "name" : "Curve.083",
            "primitives" : [
                {
                    "attributes" : {
                        "POSITION" : 16,
                        "NORMAL" : 17,
                        "TEXCOORD_0" : 18
                    },
                    "indices" : 19,
                    "material" : 4
                }
            ]
        }
    ],
    "accessors" : [
        {
            "bufferView" : 0,
            "componentType" : 5126,
            "count" : 168,
            "max" : [
                -0.044345349073410034,
                0.03500000014901161,
                0.19807285070419312
            ],
            "min" : [
                -0.2319422960281372,
                -0.03500000014901161,
                -0.3231724202632904
            ],
            "type" : "VEC3"
        },
        {
            "bufferView" : 1,
            "componentType" : 5126,
            "count" : 168,
            "type" : "VEC3"
        },
        {
            "bufferView" : 2,
            "componentType" : 5126,
            "count" : 168,
            "type" : "VEC2"
        },
        {
            "bufferView" : 3,
            "componentType" : 5123,
            "count" : 300,
            "type" : "SCALAR"
        },
        {
            "bufferView" : 4,
            "componentType" : 5126,
            "count" : 166,
            "max" : [
                0.07630711793899536,
                0.03500000014901161,
                -0.04952993988990784
            ],
            "min" : [
                -0.044345349073410034,
                -0.03500000014901161,
                -0.2319764792919159
            ],
            "type" : "VEC3"
        },
        {
            "bufferView" : 5,
            "componentType" : 5126,
            "count" : 166,
            "type" : "VEC3"
        },
        {
            "bufferView" : 6,
            "componentType" : 5126,
            "count" : 166,
            "type" : "VEC2"
        },
        {
            "bufferView" : 7,
            "componentType" : 5123,
            "count" : 312,
            "type" : "SCALAR"
        },
        {
            "bufferView" : 8,
            "componentType" : 5126,
            "count" : 338,
            "max" : [
                0.2370641529560089,
                0.03999999910593033,
                0.32212814688682556
            ],
            "min" : [
                -0.2319422960281372,
                -0.03999999910593033,
                -0.19123806059360504
            ],
            "type" : "VEC3"
        },
        {
            "bufferView" : 9,
            "componentType" : 5126,
            "count" : 338,
            "type" : "VEC3"
        },
        {
            "bufferView" : 10,
            "componentType" : 5126,
            "count" : 338,
            "type" : "VEC2"
        },
        {
            "bufferView" : 11,
            "componentType" : 5123,
            "count" : 588,
            "type" : "SCALAR"
        },
        {
            "bufferView" : 12,
            "componentType" : 5126,
            "count" : 14,
            "max" : [
                0.015938550233840942,
                0.03750000149011612,
                0.19807285070419312
            ],
            "min" : [
                -0.2319422960281372,
                -0.03750000149011612,
                -0.16417497396469116
            ],
            "type" : "VEC3"
        },
        {
            "bufferView" : 13,
            "componentType" : 5126,
            "count" : 14,
            "type" : "VEC3"
        },
        {
            "bufferView" : 14,
            "componentType" : 5126,
            "count" : 14,
            "type" : "VEC2"
        },
        {
            "bufferView" : 15,
            "componentType" : 5123,
            "count" : 24,
            "type" : "SCALAR"
        },
        {
            "bufferView" : 16,
            "componentType" : 5126,
            "count" : 18,
            "max" : [
                0.2622106969356537,
                0.05999999865889549,
                0.3363635540008545
            ],
            "min" : [
                -0.2604755461215973,
                -0.05999999865889549,
                -0.3515629768371582
            ],
            "type" : "VEC3"
        },
        {
            "bufferView" : 17,
            "componentType" : 5126,
            "count" : 18,
            "type" : "VEC3"
        },
        {
            "bufferView" : 18,
            "componentType" : 5126,
            "count" : 18,
            "type" : "VEC2"
        },
        {
            "bufferView" : 19,
            "componentType" : 5123,
            "count" : 36,
            "type" : "SCALAR"
        }
    ],
    "bufferViews" : [
        {
            "buffer" : 0,
            "byteLength" : 2016,
            "byteOffset" : 0
        },
        {
            "buffer" : 0,
            "byteLength" : 2016,
            "byteOffset" : 2016
        },
        {
            "buffer" : 0,
            "byteLength" : 1344,
            "byteOffset" : 4032
        },
        {
            "buffer" : 0,
            "byteLength" : 600,
            "byteOffset" : 5376
        },
        {
            "buffer" : 0,
            "byteLength" : 1992,
            "byteOffset" : 5976
        },
        {
            "buffer" : 0,
            "byteLength" : 1992,
            "byteOffset" : 7968
        },
        {
            "buffer" : 0,
            "byteLength" : 1328,
            "byteOffset" : 9960
        },
        {
            "buffer" : 0,
            "byteLength" : 624,
            "byteOffset" : 11288
        },
        {
            "buffer" : 0,
            "byteLength" : 4056,
            "byteOffset" : 11912
        },
        {
            "buffer" : 0,
            "byteLength" : 4056,
            "byteOffset" : 15968
        },
        {
            "buffer" : 0,
            "byteLength" : 2704,
            "byteOffset" : 20024
        },
        {
            "buffer" : 0,
            "byteLength" : 1176,
            "byteOffset" : 22728
        },
        {
            "buffer" : 0,
            "byteLength" : 168,
            "byteOffset" : 23904
        },
        {
            "buffer" : 0,
            "byteLength" : 168,
            "byteOffset" : 24072
        },
        {
            "buffer" : 0,
            "byteLength" : 112,
            "byteOffset" : 24240
        },
        {
            "buffer" : 0,
            "byteLength" : 48,
            "byteOffset" : 24352
        },
        {
            "buffer" : 0,
            "byteLength" : 216,
            "byteOffset" : 24400
        },
        {
            "buffer" : 0,
            "byteLength" : 216,
            "byteOffset" : 24616
        },
        {
            "buffer" : 0,
            "byteLength" : 144,
            "byteOffset" : 24832
        },
        {
            "buffer" : 0,
            "byteLength" : 72,
            "byteOffset" : 24976
        }
    ],
    "buffers" : [
        {
            "byteLength" : 25048,
            "uri" : "data:application/octet-stream;base64,"
        }
    ]
}
