{
    "asset" : {
        "generator" : "Khronos glTF Blender I/O v1.6.16",
        "version" : "2.0"
    },
    "scene" : 0,
    "scenes" : [
        {
            "name" : "Scene",
            "nodes" : [
                0,
                1
            ]
        }
    ],
    "nodes" : [
        {
            "mesh" : 0,
            "name" : "Curve.035",
            "translation" : [
                0.3502240478992462,
                0,
                -0.3363635540008545
            ]
        },
        {
            "mesh" : 1,
            "name" : "Cannon",
            "translation" : [
                0.3502240478992462,
                0,
                -0.3363635540008545
            ]
        }
    ],
    "materials" : [
        {
            "doubleSided" : true,
            "name" : "SVGMat.068",
            "pbrMetallicRoughness" : {
                "baseColorFactor" : [
                    0.6514056324958801,
                    0.07227185368537903,
                    0.38642942905426025,
                    1
                ],
                "metallicFactor" : 0,
                "roughnessFactor" : 0.4000000059604645
            }
        },
        {
            "doubleSided" : true,
            "name" : "SVGMat.069",
            "pbrMetallicRoughness" : {
                "baseColorFactor" : [
                    0.6514056324958801,
                    0.07227185368537903,
                    0.38642942905426025,
                    1
                ],
                "metallicFactor" : 0,
                "roughnessFactor" : 0.4000000059604645
            }
        }
    ],
    "meshes" : [
        {
            "name" : "Curve.061",
            "primitives" : [
                {
                    "attributes" : {
                        "POSITION" : 0,
                        "NORMAL" : 1,
                        "TEXCOORD_0" : 2
                    },
                    "indices" : 3,
                    "material" : 0
                }
            ]
        },
        {
            "name" : "Curve.062",
            "primitives" : [
                {
                    "attributes" : {
                        "POSITION" : 4,
                        "NORMAL" : 5,
                        "TEXCOORD_0" : 6
                    },
                    "indices" : 7,
                    "material" : 1
                }
            ]
        }
    ],
    "accessors" : [
        {
            "bufferView" : 0,
            "componentType" : 5126,
            "count" : 4398,
            "max" : [
                0.29179131984710693,
                0.03999999910593033,
                0.31514447927474976
            ],
            "min" : [
                -0.28698617219924927,
                -0.03999999910593033,
                -0.3349432349205017
            ],
            "type" : "VEC3"
        },
        {
            "bufferView" : 1,
            "componentType" : 5126,
            "count" : 4398,
            "type" : "VEC3"
        },
        {
            "bufferView" : 2,
            "componentType" : 5126,
            "count" : 4398,
            "type" : "VEC2"
        },
        {
            "bufferView" : 3,
            "componentType" : 5123,
            "count" : 8016,
            "type" : "SCALAR"
        },
        {
            "bufferView" : 4,
            "componentType" : 5126,
            "count" : 34,
            "max" : [
                0.2992672622203827,
                0.05999999865889549,
                0.33244144916534424
            ],
            "min" : [
                -0.2939760088920593,
                -0.05999999865889549,
                -0.35243767499923706
            ],
            "type" : "VEC3"
        },
        {
            "bufferView" : 5,
            "componentType" : 5126,
            "count" : 34,
            "type" : "VEC3"
        },
        {
            "bufferView" : 6,
            "componentType" : 5126,
            "count" : 34,
            "type" : "VEC2"
        },
        {
            "bufferView" : 7,
            "componentType" : 5123,
            "count" : 60,
            "type" : "SCALAR"
        }
    ],
    "bufferViews" : [
        {
            "buffer" : 0,
            "byteLength" : 52776,
            "byteOffset" : 0
        },
        {
            "buffer" : 0,
            "byteLength" : 52776,
            "byteOffset" : 52776
        },
        {
            "buffer" : 0,
            "byteLength" : 35184,
            "byteOffset" : 105552
        },
        {
            "buffer" : 0,
            "byteLength" : 16032,
            "byteOffset" : 140736
        },
        {
            "buffer" : 0,
            "byteLength" : 408,
            "byteOffset" : 156768
        },
        {
            "buffer" : 0,
            "byteLength" : 408,
            "byteOffset" : 157176
        },
        {
            "buffer" : 0,
            "byteLength" : 272,
            "byteOffset" : 157584
        },
        {
            "buffer" : 0,
            "byteLength" : 120,
            "byteOffset" : 157856
        }
    ],
    "buffers" : [
        {
            "byteLength" : 157976,
            "uri" : "data:application/octet-stream;base64,"
        }
    ]
}
