{
    "asset" : {
        "generator" : "Khronos glTF Blender I/O v1.6.16",
        "version" : "2.0"
    },
    "scene" : 0,
    "scenes" : [
        {
            "name" : "Scene",
            "nodes" : [
                0,
                1,
                2
            ]
        }
    ],
    "nodes" : [
        {
            "mesh" : 0,
            "name" : "Curve.023",
            "translation" : [
                0.369042307138443,
                0,
                -0.33915209770202637
            ]
        },
        {
            "mesh" : 1,
            "name" : "Curve.024",
            "translation" : [
                0.369042307138443,
                0,
                -0.33915209770202637
            ]
        },
        {
            "mesh" : 2,
            "name" : "Cannon.009",
            "translation" : [
                0.369042307138443,
                0,
                -0.33915209770202637
            ]
        }
    ],
    "materials" : [
        {
            "doubleSided" : true,
            "name" : "SVGMat.013",
            "pbrMetallicRoughness" : {
                "baseColorFactor" : [
                    0.027320891618728638,
                    0.0015176349552348256,
                    0.0006070539820939302,
                    1
                ],
                "metallicFactor" : 0,
                "roughnessFactor" : 0.4000000059604645
            }
        },
        {
            "doubleSided" : true,
            "name" : "SVGMat.014",
            "pbrMetallicRoughness" : {
                "baseColorFactor" : [
                    1,
                    0.21223075687885284,
                    0.009134058840572834,
                    1
                ],
                "metallicFactor" : 0,
                "roughnessFactor" : 0.4000000059604645
            }
        },
        {
            "doubleSided" : true,
            "name" : "SVGMat.015",
            "pbrMetallicRoughness" : {
                "baseColorFactor" : [
                    0.026241222396492958,
                    0.026241222396492958,
                    0.0423114113509655,
                    1
                ],
                "metallicFactor" : 0,
                "roughnessFactor" : 0.4000000059604645
            }
        }
    ],
    "meshes" : [
        {
            "name" : "Curve.015",
            "primitives" : [
                {
                    "attributes" : {
                        "POSITION" : 0,
                        "NORMAL" : 1,
                        "TEXCOORD_0" : 2
                    },
                    "indices" : 3,
                    "material" : 0
                }
            ]
        },
        {
            "name" : "Curve.016",
            "primitives" : [
                {
                    "attributes" : {
                        "POSITION" : 4,
                        "NORMAL" : 5,
                        "TEXCOORD_0" : 6
                    },
                    "indices" : 7,
                    "material" : 1
                }
            ]
        },
        {
            "name" : "Curve.019",
            "primitives" : [
                {
                    "attributes" : {
                        "POSITION" : 8,
                        "NORMAL" : 9,
                        "TEXCOORD_0" : 10
                    },
                    "indices" : 11,
                    "material" : 2
                }
            ]
        }
    ],
    "accessors" : [
        {
            "bufferView" : 0,
            "componentType" : 5126,
            "count" : 473,
            "max" : [
                0.33652767539024353,
                0.029999999329447746,
                0.3390674591064453
            ],
            "min" : [
                -0.369042307138443,
                -0.029999999329447746,
                -0.34871798753738403
            ],
            "type" : "VEC3"
        },
        {
            "bufferView" : 1,
            "componentType" : 5126,
            "count" : 473,
            "type" : "VEC3"
        },
        {
            "bufferView" : 2,
            "componentType" : 5126,
            "count" : 473,
            "type" : "VEC2"
        },
        {
            "bufferView" : 3,
            "componentType" : 5123,
            "count" : 1008,
            "type" : "SCALAR"
        },
        {
            "bufferView" : 4,
            "componentType" : 5126,
            "count" : 2197,
            "max" : [
                0.14983388781547546,
                0.03999999910593033,
                0.13187119364738464
            ],
            "min" : [
                -0.19813165068626404,
                -0.03999999910593033,
                -0.20026922225952148
            ],
            "type" : "VEC3"
        },
        {
            "bufferView" : 5,
            "componentType" : 5126,
            "count" : 2197,
            "type" : "VEC3"
        },
        {
            "bufferView" : 6,
            "componentType" : 5126,
            "count" : 2197,
            "type" : "VEC2"
        },
        {
            "bufferView" : 7,
            "componentType" : 5123,
            "count" : 4320,
            "type" : "SCALAR"
        },
        {
            "bufferView" : 8,
            "componentType" : 5126,
            "count" : 34,
            "max" : [
                0.33748769760131836,
                0.05999999865889549,
                0.33847492933273315
            ],
            "min" : [
                -0.3667276203632355,
                -0.05999999865889549,
                -0.3655916452407837
            ],
            "type" : "VEC3"
        },
        {
            "bufferView" : 9,
            "componentType" : 5126,
            "count" : 34,
            "type" : "VEC3"
        },
        {
            "bufferView" : 10,
            "componentType" : 5126,
            "count" : 34,
            "type" : "VEC2"
        },
        {
            "bufferView" : 11,
            "componentType" : 5123,
            "count" : 84,
            "type" : "SCALAR"
        }
    ],
    "bufferViews" : [
        {
            "buffer" : 0,
            "byteLength" : 5676,
            "byteOffset" : 0
        },
        {
            "buffer" : 0,
            "byteLength" : 5676,
            "byteOffset" : 5676
        },
        {
            "buffer" : 0,
            "byteLength" : 3784,
            "byteOffset" : 11352
        },
        {
            "buffer" : 0,
            "byteLength" : 2016,
            "byteOffset" : 15136
        },
        {
            "buffer" : 0,
            "byteLength" : 26364,
            "byteOffset" : 17152
        },
        {
            "buffer" : 0,
            "byteLength" : 26364,
            "byteOffset" : 43516
        },
        {
            "buffer" : 0,
            "byteLength" : 17576,
            "byteOffset" : 69880
        },
        {
            "buffer" : 0,
            "byteLength" : 8640,
            "byteOffset" : 87456
        },
        {
            "buffer" : 0,
            "byteLength" : 408,
            "byteOffset" : 96096
        },
        {
            "buffer" : 0,
            "byteLength" : 408,
            "byteOffset" : 96504
        },
        {
            "buffer" : 0,
            "byteLength" : 272,
            "byteOffset" : 96912
        },
        {
            "buffer" : 0,
            "byteLength" : 168,
            "byteOffset" : 97184
        }
    ],
    "buffers" : [
        {
            "byteLength" : 97352,
            "uri" : "data:application/octet-stream;base64,"
        }
    ]
}
