{
    "asset" : {
        "generator" : "Khronos glTF Blender I/O v1.6.16",
        "version" : "2.0"
    },
    "scene" : 0,
    "scenes" : [
        {
            "name" : "Scene",
            "nodes" : [
                0,
                1,
                2
            ]
        }
    ],
    "nodes" : [
        {
            "mesh" : 0,
            "name" : "Curve.019",
            "translation" : [
                0.3634050488471985,
                0,
                -0.3557682931423187
            ]
        },
        {
            "mesh" : 1,
            "name" : "Curve.001",
            "translation" : [
                0.3634050488471985,
                0,
                -0.3557682931423187
            ]
        },
        {
            "mesh" : 2,
            "name" : "Cannon",
            "translation" : [
                0.3634050488471985,
                0,
                -0.3557682931423187
            ]
        }
    ],
    "materials" : [
        {
            "doubleSided" : true,
            "name" : "SVGMat.060",
            "pbrMetallicRoughness" : {
                "baseColorFactor" : [
                    1,
                    0.6307571530342102,
                    0.028426039963960648,
                    1
                ],
                "metallicFactor" : 0,
                "roughnessFactor" : 0.4000000059604645
            }
        },
        {
            "doubleSided" : true,
            "name" : "SVGMat.061",
            "pbrMetallicRoughness" : {
                "baseColorFactor" : [
                    0.0015176349552348256,
                    0,
                    0.039546236395835876,
                    1
                ],
                "metallicFactor" : 0,
                "roughnessFactor" : 0.4000000059604645
            }
        },
        {
            "doubleSided" : true,
            "name" : "SVGMat.074",
            "pbrMetallicRoughness" : {
                "baseColorFactor" : [
                    1,
                    0.6307571530342102,
                    0.028426039963960648,
                    1
                ],
                "metallicFactor" : 0,
                "roughnessFactor" : 0.4000000059604645
            }
        }
    ],
    "meshes" : [
        {
            "name" : "Curve.042",
            "primitives" : [
                {
                    "attributes" : {
                        "POSITION" : 0,
                        "NORMAL" : 1,
                        "TEXCOORD_0" : 2
                    },
                    "indices" : 3,
                    "material" : 0
                }
            ]
        },
        {
            "name" : "Curve.043",
            "primitives" : [
                {
                    "attributes" : {
                        "POSITION" : 4,
                        "NORMAL" : 5,
                        "TEXCOORD_0" : 6
                    },
                    "indices" : 7,
                    "material" : 1
                }
            ]
        },
        {
            "name" : "Curve.053",
            "primitives" : [
                {
                    "attributes" : {
                        "POSITION" : 8,
                        "NORMAL" : 9,
                        "TEXCOORD_0" : 10
                    },
                    "indices" : 3,
                    "material" : 2
                }
            ]
        }
    ],
    "accessors" : [
        {
            "bufferView" : 0,
            "componentType" : 5126,
            "count" : 18,
            "max" : [
                0.34216493368148804,
                0.029999999329447746,
                0.3557682931423187
            ],
            "min" : [
                -0.3634050488471985,
                -0.029999999329447746,
                -0.3496526777744293
            ],
            "type" : "VEC3"
        },
        {
            "bufferView" : 1,
            "componentType" : 5126,
            "count" : 18,
            "type" : "VEC3"
        },
        {
            "bufferView" : 2,
            "componentType" : 5126,
            "count" : 18,
            "type" : "VEC2"
        },
        {
            "bufferView" : 3,
            "componentType" : 5123,
            "count" : 36,
            "type" : "SCALAR"
        },
        {
            "bufferView" : 4,
            "componentType" : 5126,
            "count" : 96,
            "max" : [
                0.259848415851593,
                0.03999999910593033,
                0.2617121636867523
            ],
            "min" : [
                -0.2575695514678955,
                -0.03999999910593033,
                -0.2555965483188629
            ],
            "type" : "VEC3"
        },
        {
            "bufferView" : 5,
            "componentType" : 5126,
            "count" : 96,
            "type" : "VEC3"
        },
        {
            "bufferView" : 6,
            "componentType" : 5126,
            "count" : 96,
            "type" : "VEC2"
        },
        {
            "bufferView" : 7,
            "componentType" : 5123,
            "count" : 204,
            "type" : "SCALAR"
        },
        {
            "bufferView" : 8,
            "componentType" : 5126,
            "count" : 18,
            "max" : [
                0.34216493368148804,
                0.05999999865889549,
                0.3557682931423187
            ],
            "min" : [
                -0.3634050488471985,
                -0.05999999865889549,
                -0.3496526777744293
            ],
            "type" : "VEC3"
        },
        {
            "bufferView" : 9,
            "componentType" : 5126,
            "count" : 18,
            "type" : "VEC3"
        },
        {
            "bufferView" : 10,
            "componentType" : 5126,
            "count" : 18,
            "type" : "VEC2"
        }
    ],
    "bufferViews" : [
        {
            "buffer" : 0,
            "byteLength" : 216,
            "byteOffset" : 0
        },
        {
            "buffer" : 0,
            "byteLength" : 216,
            "byteOffset" : 216
        },
        {
            "buffer" : 0,
            "byteLength" : 144,
            "byteOffset" : 432
        },
        {
            "buffer" : 0,
            "byteLength" : 72,
            "byteOffset" : 576
        },
        {
            "buffer" : 0,
            "byteLength" : 1152,
            "byteOffset" : 648
        },
        {
            "buffer" : 0,
            "byteLength" : 1152,
            "byteOffset" : 1800
        },
        {
            "buffer" : 0,
            "byteLength" : 768,
            "byteOffset" : 2952
        },
        {
            "buffer" : 0,
            "byteLength" : 408,
            "byteOffset" : 3720
        },
        {
            "buffer" : 0,
            "byteLength" : 216,
            "byteOffset" : 4128
        },
        {
            "buffer" : 0,
            "byteLength" : 216,
            "byteOffset" : 4344
        },
        {
            "buffer" : 0,
            "byteLength" : 144,
            "byteOffset" : 4560
        }
    ],
    "buffers" : [
        {
            "byteLength" : 4704,
            "uri" : "data:application/octet-stream;base64,"
        }
    ]
}
