{
    "asset" : {
        "generator" : "Khronos glTF Blender I/O v1.6.16",
        "version" : "2.0"
    },
    "scene" : 0,
    "scenes" : [
        {
            "name" : "Scene",
            "nodes" : [
                0,
                1,
                2,
                3,
                4
            ]
        }
    ],
    "nodes" : [
        {
            "mesh" : 0,
            "name" : "Curve.015",
            "translation" : [
                0.34890952706336975,
                0,
                -0.35286909341812134
            ]
        },
        {
            "mesh" : 1,
            "name" : "Curve.016",
            "translation" : [
                0.34890952706336975,
                0,
                -0.35286909341812134
            ]
        },
        {
            "mesh" : 2,
            "name" : "Curve.017",
            "translation" : [
                0.34890952706336975,
                0,
                -0.35286909341812134
            ]
        },
        {
            "mesh" : 3,
            "name" : "Curve.018",
            "translation" : [
                0.34890952706336975,
                0,
                -0.35286909341812134
            ]
        },
        {
            "mesh" : 4,
            "name" : "Cannon",
            "translation" : [
                0.34890952706336975,
                0,
                -0.35286909341812134
            ]
        }
    ],
    "materials" : [
        {
            "doubleSided" : true,
            "name" : "SVGMat.063",
            "pbrMetallicRoughness" : {
                "baseColorFactor" : [
                    1,
                    1,
                    1,
                    1
                ],
                "metallicFactor" : 0,
                "roughnessFactor" : 0.4000000059604645
            }
        },
        {
            "doubleSided" : true,
            "name" : "SVGMat.064",
            "pbrMetallicRoughness" : {
                "baseColorFactor" : [
                    0.09989872574806213,
                    0.3049873113632202,
                    0.03688944876194,
                    1
                ],
                "metallicFactor" : 0,
                "roughnessFactor" : 0.4000000059604645
            }
        },
        {
            "doubleSided" : true,
            "name" : "SVGMat.065",
            "pbrMetallicRoughness" : {
                "baseColorFactor" : [
                    0.14995978772640228,
                    0.4125426113605499,
                    0.06480326503515244,
                    1
                ],
                "metallicFactor" : 0,
                "roughnessFactor" : 0.4000000059604645
            }
        },
        {
            "doubleSided" : true,
            "name" : "SVGMat.066",
            "pbrMetallicRoughness" : {
                "baseColorFactor" : [
                    0.5394794940948486,
                    0.520995557308197,
                    0.520995557308197,
                    1
                ],
                "metallicFactor" : 0,
                "roughnessFactor" : 0.4000000059604645
            }
        },
        {
            "doubleSided" : true,
            "name" : "SVGMat.075",
            "pbrMetallicRoughness" : {
                "baseColorFactor" : [
                    1,
                    1,
                    1,
                    1
                ],
                "metallicFactor" : 0,
                "roughnessFactor" : 0.4000000059604645
            }
        }
    ],
    "meshes" : [
        {
            "name" : "Curve.044",
            "primitives" : [
                {
                    "attributes" : {
                        "POSITION" : 0,
                        "NORMAL" : 1,
                        "TEXCOORD_0" : 2
                    },
                    "indices" : 3,
                    "material" : 0
                }
            ]
        },
        {
            "name" : "Curve.045",
            "primitives" : [
                {
                    "attributes" : {
                        "POSITION" : 4,
                        "NORMAL" : 5,
                        "TEXCOORD_0" : 6
                    },
                    "indices" : 7,
                    "material" : 1
                }
            ]
        },
        {
            "name" : "Curve.046",
            "primitives" : [
                {
                    "attributes" : {
                        "POSITION" : 8,
                        "NORMAL" : 9,
                        "TEXCOORD_0" : 10
                    },
                    "indices" : 11,
                    "material" : 2
                }
            ]
        },
        {
            "name" : "Curve.047",
            "primitives" : [
                {
                    "attributes" : {
                        "POSITION" : 12,
                        "NORMAL" : 13,
                        "TEXCOORD_0" : 14
                    },
                    "indices" : 15,
                    "material" : 3
                }
            ]
        },
        {
            "name" : "Curve.054",
            "primitives" : [
                {
                    "attributes" : {
                        "POSITION" : 16,
                        "NORMAL" : 17,
                        "TEXCOORD_0" : 18
                    },
                    "indices" : 3,
                    "material" : 4
                }
            ]
        }
    ],
    "accessors" : [
        {
            "bufferView" : 0,
            "componentType" : 5126,
            "count" : 306,
            "max" : [
                0.42710456252098083,
                0.029999999329447746,
                0.419658362865448
            ],
            "min" : [
                -0.4318845570087433,
                -0.029999999329447746,
                -0.4391493797302246
            ],
            "type" : "VEC3"
        },
        {
            "bufferView" : 1,
            "componentType" : 5126,
            "count" : 306,
            "type" : "VEC3"
        },
        {
            "bufferView" : 2,
            "componentType" : 5126,
            "count" : 306,
            "type" : "VEC2"
        },
        {
            "bufferView" : 3,
            "componentType" : 5123,
            "count" : 564,
            "type" : "SCALAR"
        },
        {
            "bufferView" : 4,
            "componentType" : 5126,
            "count" : 866,
            "max" : [
                0.12622129917144775,
                0.03999999910593033,
                0.2012035846710205
            ],
            "min" : [
                -0.004632142838090658,
                -0.03999999910593033,
                -0.2946227192878723
            ],
            "type" : "VEC3"
        },
        {
            "bufferView" : 5,
            "componentType" : 5126,
            "count" : 866,
            "type" : "VEC3"
        },
        {
            "bufferView" : 6,
            "componentType" : 5126,
            "count" : 866,
            "type" : "VEC2"
        },
        {
            "bufferView" : 7,
            "componentType" : 5123,
            "count" : 1584,
            "type" : "SCALAR"
        },
        {
            "bufferView" : 8,
            "componentType" : 5126,
            "count" : 906,
            "max" : [
                -0.0007248520851135254,
                0.03999999910593033,
                0.20653659105300903
            ],
            "min" : [
                -0.13110072910785675,
                -0.03999999910593033,
                -0.2961631417274475
            ],
            "type" : "VEC3"
        },
        {
            "bufferView" : 9,
            "componentType" : 5126,
            "count" : 906,
            "type" : "VEC3"
        },
        {
            "bufferView" : 10,
            "componentType" : 5126,
            "count" : 906,
            "type" : "VEC2"
        },
        {
            "bufferView" : 11,
            "componentType" : 5123,
            "count" : 1716,
            "type" : "SCALAR"
        },
        {
            "bufferView" : 12,
            "componentType" : 5126,
            "count" : 1250,
            "max" : [
                0.018918216228485107,
                0.03999999910593033,
                0.27674007415771484
            ],
            "min" : [
                -0.01356622576713562,
                -0.03999999910593033,
                0.134442538022995
            ],
            "type" : "VEC3"
        },
        {
            "bufferView" : 13,
            "componentType" : 5126,
            "count" : 1250,
            "type" : "VEC3"
        },
        {
            "bufferView" : 14,
            "componentType" : 5126,
            "count" : 1250,
            "type" : "VEC2"
        },
        {
            "bufferView" : 15,
            "componentType" : 5123,
            "count" : 2304,
            "type" : "SCALAR"
        },
        {
            "bufferView" : 16,
            "componentType" : 5126,
            "count" : 306,
            "max" : [
                0.42710456252098083,
                0.05999999865889549,
                0.419658362865448
            ],
            "min" : [
                -0.4318845570087433,
                -0.05999999865889549,
                -0.4391493797302246
            ],
            "type" : "VEC3"
        },
        {
            "bufferView" : 17,
            "componentType" : 5126,
            "count" : 306,
            "type" : "VEC3"
        },
        {
            "bufferView" : 18,
            "componentType" : 5126,
            "count" : 306,
            "type" : "VEC2"
        }
    ],
    "bufferViews" : [
        {
            "buffer" : 0,
            "byteLength" : 3672,
            "byteOffset" : 0
        },
        {
            "buffer" : 0,
            "byteLength" : 3672,
            "byteOffset" : 3672
        },
        {
            "buffer" : 0,
            "byteLength" : 2448,
            "byteOffset" : 7344
        },
        {
            "buffer" : 0,
            "byteLength" : 1128,
            "byteOffset" : 9792
        },
        {
            "buffer" : 0,
            "byteLength" : 10392,
            "byteOffset" : 10920
        },
        {
            "buffer" : 0,
            "byteLength" : 10392,
            "byteOffset" : 21312
        },
        {
            "buffer" : 0,
            "byteLength" : 6928,
            "byteOffset" : 31704
        },
        {
            "buffer" : 0,
            "byteLength" : 3168,
            "byteOffset" : 38632
        },
        {
            "buffer" : 0,
            "byteLength" : 10872,
            "byteOffset" : 41800
        },
        {
            "buffer" : 0,
            "byteLength" : 10872,
            "byteOffset" : 52672
        },
        {
            "buffer" : 0,
            "byteLength" : 7248,
            "byteOffset" : 63544
        },
        {
            "buffer" : 0,
            "byteLength" : 3432,
            "byteOffset" : 70792
        },
        {
            "buffer" : 0,
            "byteLength" : 15000,
            "byteOffset" : 74224
        },
        {
            "buffer" : 0,
            "byteLength" : 15000,
            "byteOffset" : 89224
        },
        {
            "buffer" : 0,
            "byteLength" : 10000,
            "byteOffset" : 104224
        },
        {
            "buffer" : 0,
            "byteLength" : 4608,
            "byteOffset" : 114224
        },
        {
            "buffer" : 0,
            "byteLength" : 3672,
            "byteOffset" : 118832
        },
        {
            "buffer" : 0,
            "byteLength" : 3672,
            "byteOffset" : 122504
        },
        {
            "buffer" : 0,
            "byteLength" : 2448,
            "byteOffset" : 126176
        }
    ],
    "buffers" : [
        {
            "byteLength" : 128624,
            "uri" : "data:application/octet-stream;base64,"
        }
    ]
}
