{
    "asset" : {
        "generator" : "Khronos glTF Blender I/O v1.6.16",
        "version" : "2.0"
    },
    "scene" : 0,
    "scenes" : [
        {
            "name" : "Scene",
            "nodes" : [
                0,
                1,
                2
            ]
        }
    ],
    "nodes" : [
        {
            "mesh" : 0,
            "name" : "Curve.005",
            "translation" : [
                0.3181343972682953,
                0,
                -0.33279260993003845
            ]
        },
        {
            "mesh" : 1,
            "name" : "Curve.006",
            "translation" : [
                0.3181343972682953,
                0,
                -0.33279260993003845
            ]
        },
        {
            "mesh" : 2,
            "name" : "Cannon.003",
            "translation" : [
                0.3181343972682953,
                0,
                -0.33279260993003845
            ]
        }
    ],
    "materials" : [
        {
            "doubleSided" : true,
            "name" : "SVGMat.041",
            "pbrMetallicRoughness" : {
                "baseColorFactor" : [
                    0.2622506618499756,
                    0.577580451965332,
                    0.07036009430885315,
                    1
                ],
                "metallicFactor" : 0,
                "roughnessFactor" : 0.4000000059604645
            }
        },
        {
            "doubleSided" : true,
            "name" : "SVGMat.042",
            "pbrMetallicRoughness" : {
                "baseColorFactor" : [
                    0.2622506618499756,
                    0.577580451965332,
                    0.07036009430885315,
                    1
                ],
                "metallicFactor" : 0,
                "roughnessFactor" : 0.4000000059604645
            }
        },
        {
            "doubleSided" : true,
            "name" : "SVGMat.043",
            "pbrMetallicRoughness" : {
                "baseColorFactor" : [
                    1,
                    1,
                    1,
                    1
                ],
                "metallicFactor" : 0,
                "roughnessFactor" : 0.4000000059604645
            }
        }
    ],
    "meshes" : [
        {
            "name" : "Curve.026",
            "primitives" : [
                {
                    "attributes" : {
                        "POSITION" : 0,
                        "NORMAL" : 1,
                        "TEXCOORD_0" : 2
                    },
                    "indices" : 3,
                    "material" : 0
                }
            ]
        },
        {
            "name" : "Curve.027",
            "primitives" : [
                {
                    "attributes" : {
                        "POSITION" : 4,
                        "NORMAL" : 5,
                        "TEXCOORD_0" : 6
                    },
                    "indices" : 7,
                    "material" : 1
                }
            ]
        },
        {
            "name" : "Curve.028",
            "primitives" : [
                {
                    "attributes" : {
                        "POSITION" : 8,
                        "NORMAL" : 9,
                        "TEXCOORD_0" : 10
                    },
                    "indices" : 11,
                    "material" : 2
                }
            ]
        }
    ],
    "accessors" : [
        {
            "bufferView" : 0,
            "componentType" : 5126,
            "count" : 3026,
            "max" : [
                0.3208862245082855,
                0.03999999910593033,
                0.33113840222358704
            ],
            "min" : [
                -0.3165821433067322,
                -0.03999999910593033,
                -0.3711751699447632
            ],
            "type" : "VEC3"
        },
        {
            "bufferView" : 1,
            "componentType" : 5126,
            "count" : 3026,
            "type" : "VEC3"
        },
        {
            "bufferView" : 2,
            "componentType" : 5126,
            "count" : 3026,
            "type" : "VEC2"
        },
        {
            "bufferView" : 3,
            "componentType" : 5123,
            "count" : 5604,
            "type" : "SCALAR"
        },
        {
            "bufferView" : 4,
            "componentType" : 5126,
            "count" : 2222,
            "max" : [
                0.21484582126140594,
                0.03999999910593033,
                0.12657997012138367
            ],
            "min" : [
                -0.05596485733985901,
                -0.03999999910593033,
                -0.15849915146827698
            ],
            "type" : "VEC3"
        },
        {
            "bufferView" : 5,
            "componentType" : 5126,
            "count" : 2222,
            "type" : "VEC3"
        },
        {
            "bufferView" : 6,
            "componentType" : 5126,
            "count" : 2222,
            "type" : "VEC2"
        },
        {
            "bufferView" : 7,
            "componentType" : 5123,
            "count" : 4164,
            "type" : "SCALAR"
        },
        {
            "bufferView" : 8,
            "componentType" : 5126,
            "count" : 26,
            "max" : [
                0.323962539434433,
                0.05999999865889549,
                0.3555354177951813
            ],
            "min" : [
                -0.3195737600326538,
                -0.05999999865889549,
                -0.38741400837898254
            ],
            "type" : "VEC3"
        },
        {
            "bufferView" : 9,
            "componentType" : 5126,
            "count" : 26,
            "type" : "VEC3"
        },
        {
            "bufferView" : 10,
            "componentType" : 5126,
            "count" : 26,
            "type" : "VEC2"
        },
        {
            "bufferView" : 11,
            "componentType" : 5123,
            "count" : 60,
            "type" : "SCALAR"
        }
    ],
    "bufferViews" : [
        {
            "buffer" : 0,
            "byteLength" : 36312,
            "byteOffset" : 0
        },
        {
            "buffer" : 0,
            "byteLength" : 36312,
            "byteOffset" : 36312
        },
        {
            "buffer" : 0,
            "byteLength" : 24208,
            "byteOffset" : 72624
        },
        {
            "buffer" : 0,
            "byteLength" : 11208,
            "byteOffset" : 96832
        },
        {
            "buffer" : 0,
            "byteLength" : 26664,
            "byteOffset" : 108040
        },
        {
            "buffer" : 0,
            "byteLength" : 26664,
            "byteOffset" : 134704
        },
        {
            "buffer" : 0,
            "byteLength" : 17776,
            "byteOffset" : 161368
        },
        {
            "buffer" : 0,
            "byteLength" : 8328,
            "byteOffset" : 179144
        },
        {
            "buffer" : 0,
            "byteLength" : 312,
            "byteOffset" : 187472
        },
        {
            "buffer" : 0,
            "byteLength" : 312,
            "byteOffset" : 187784
        },
        {
            "buffer" : 0,
            "byteLength" : 208,
            "byteOffset" : 188096
        },
        {
            "buffer" : 0,
            "byteLength" : 120,
            "byteOffset" : 188304
        }
    ],
    "buffers" : [
        {
            "byteLength" : 188424,
            "uri" : "data:application/octet-stream;base64,"
        }
    ]
}
