{
    "asset" : {
        "generator" : "Khronos glTF Blender I/O v1.6.16",
        "version" : "2.0"
    },
    "scene" : 0,
    "scenes" : [
        {
            "name" : "Scene",
            "nodes" : [
                0,
                1,
                2
            ]
        }
    ],
    "nodes" : [
        {
            "mesh" : 0,
            "name" : "Curve"
        },
        {
            "mesh" : 1,
            "name" : "Curve.022"
        },
        {
            "mesh" : 2,
            "name" : "Cannon.008",
            "translation" : [
                0.3529207110404968,
                0,
                -0.359920859336853
            ]
        }
    ],
    "materials" : [
        {
            "doubleSided" : true,
            "name" : "SVGMat.004",
            "pbrMetallicRoughness" : {
                "baseColorFactor" : [
                    0,
                    0.012983032502233982,
                    0.03688944876194,
                    1
                ],
                "metallicFactor" : 0,
                "roughnessFactor" : 0.4000000059604645
            }
        },
        {
            "doubleSided" : true,
            "name" : "SVGMat.007",
            "pbrMetallicRoughness" : {
                "baseColorFactor" : [
                    0.03071344457566738,
                    0.3915724754333496,
                    1,
                    1
                ],
                "metallicFactor" : 0,
                "roughnessFactor" : 0.4000000059604645
            }
        },
        {
            "doubleSided" : true,
            "name" : "SVGMat.010",
            "pbrMetallicRoughness" : {
                "baseColorFactor" : [
                    0.026241222396492958,
                    0.026241222396492958,
                    0.0423114113509655,
                    1
                ],
                "metallicFactor" : 0,
                "roughnessFactor" : 0.4000000059604645
            }
        }
    ],
    "meshes" : [
        {
            "name" : "Curve.010",
            "primitives" : [
                {
                    "attributes" : {
                        "POSITION" : 0,
                        "NORMAL" : 1,
                        "TEXCOORD_0" : 2
                    },
                    "indices" : 3,
                    "material" : 0
                }
            ]
        },
        {
            "name" : "Curve.011",
            "primitives" : [
                {
                    "attributes" : {
                        "POSITION" : 4,
                        "NORMAL" : 5,
                        "TEXCOORD_0" : 6
                    },
                    "indices" : 7,
                    "material" : 1
                }
            ]
        },
        {
            "name" : "Curve.012",
            "primitives" : [
                {
                    "attributes" : {
                        "POSITION" : 8,
                        "NORMAL" : 9,
                        "TEXCOORD_0" : 10
                    },
                    "indices" : 11,
                    "material" : 2
                }
            ]
        }
    ],
    "accessors" : [
        {
            "bufferView" : 0,
            "componentType" : 5126,
            "count" : 457,
            "max" : [
                0.7055699825286865,
                0.029999999329447746,
                7.051229476928711e-05
            ],
            "min" : [
                0,
                -0.029999999329447746,
                -0.6877149343490601
            ],
            "type" : "VEC3"
        },
        {
            "bufferView" : 1,
            "componentType" : 5126,
            "count" : 457,
            "type" : "VEC3"
        },
        {
            "bufferView" : 2,
            "componentType" : 5126,
            "count" : 457,
            "type" : "VEC2"
        },
        {
            "bufferView" : 3,
            "componentType" : 5123,
            "count" : 1008,
            "type" : "SCALAR"
        },
        {
            "bufferView" : 4,
            "componentType" : 5126,
            "count" : 5199,
            "max" : [
                0.5832898020744324,
                0.03999999910593033,
                -0.19538986682891846
            ],
            "min" : [
                0.15875324606895447,
                -0.03999999910593033,
                -0.5128293037414551
            ],
            "type" : "VEC3"
        },
        {
            "bufferView" : 5,
            "componentType" : 5126,
            "count" : 5199,
            "type" : "VEC3"
        },
        {
            "bufferView" : 6,
            "componentType" : 5126,
            "count" : 5199,
            "type" : "VEC2"
        },
        {
            "bufferView" : 7,
            "componentType" : 5123,
            "count" : 9660,
            "type" : "SCALAR"
        },
        {
            "bufferView" : 8,
            "componentType" : 5126,
            "count" : 34,
            "max" : [
                0.3536092936992645,
                0.05999999865889549,
                0.3592436909675598
            ],
            "min" : [
                -0.3506060242652893,
                -0.05999999865889549,
                -0.34482288360595703
            ],
            "type" : "VEC3"
        },
        {
            "bufferView" : 9,
            "componentType" : 5126,
            "count" : 34,
            "type" : "VEC3"
        },
        {
            "bufferView" : 10,
            "componentType" : 5126,
            "count" : 34,
            "type" : "VEC2"
        },
        {
            "bufferView" : 11,
            "componentType" : 5123,
            "count" : 84,
            "type" : "SCALAR"
        }
    ],
    "bufferViews" : [
        {
            "buffer" : 0,
            "byteLength" : 5484,
            "byteOffset" : 0
        },
        {
            "buffer" : 0,
            "byteLength" : 5484,
            "byteOffset" : 5484
        },
        {
            "buffer" : 0,
            "byteLength" : 3656,
            "byteOffset" : 10968
        },
        {
            "buffer" : 0,
            "byteLength" : 2016,
            "byteOffset" : 14624
        },
        {
            "buffer" : 0,
            "byteLength" : 62388,
            "byteOffset" : 16640
        },
        {
            "buffer" : 0,
            "byteLength" : 62388,
            "byteOffset" : 79028
        },
        {
            "buffer" : 0,
            "byteLength" : 41592,
            "byteOffset" : 141416
        },
        {
            "buffer" : 0,
            "byteLength" : 19320,
            "byteOffset" : 183008
        },
        {
            "buffer" : 0,
            "byteLength" : 408,
            "byteOffset" : 202328
        },
        {
            "buffer" : 0,
            "byteLength" : 408,
            "byteOffset" : 202736
        },
        {
            "buffer" : 0,
            "byteLength" : 272,
            "byteOffset" : 203144
        },
        {
            "buffer" : 0,
            "byteLength" : 168,
            "byteOffset" : 203416
        }
    ],
    "buffers" : [
        {
            "byteLength" : 203584,
            "uri" : "data:application/octet-stream;base64,"
        }
    ]
}
