{
    "asset" : {
        "generator" : "Khronos glTF Blender I/O v1.6.16",
        "version" : "2.0"
    },
    "scene" : 0,
    "scenes" : [
        {
            "name" : "Scene",
            "nodes" : [
                0,
                1,
                2
            ]
        }
    ],
    "nodes" : [
        {
            "mesh" : 0,
            "name" : "Cannon",
            "translation" : [
                0.3502240478992462,
                0,
                -0.3363635540008545
            ]
        },
        {
            "mesh" : 1,
            "name" : "Curve.037",
            "translation" : [
                0.3502240478992462,
                0,
                -0.3363635540008545
            ]
        },
        {
            "mesh" : 2,
            "name" : "Curve.038",
            "translation" : [
                0.3502240478992462,
                0,
                -0.3363635540008545
            ]
        }
    ],
    "materials" : [
        {
            "doubleSided" : true,
            "name" : "SVGMat.072",
            "pbrMetallicRoughness" : {
                "baseColorFactor" : [
                    0.6514056324958801,
                    0.07227185368537903,
                    0.38642942905426025,
                    1
                ],
                "metallicFactor" : 0,
                "roughnessFactor" : 0.4000000059604645
            }
        },
        {
            "doubleSided" : true,
            "name" : "SVGMat.073",
            "pbrMetallicRoughness" : {
                "baseColorFactor" : [
                    0.05951123684644699,
                    0.16826939582824707,
                    0.3613067865371704,
                    1
                ],
                "metallicFactor" : 0,
                "roughnessFactor" : 0.4000000059604645
            }
        },
        {
            "doubleSided" : true,
            "name" : "SVGMat.074",
            "pbrMetallicRoughness" : {
                "baseColorFactor" : [
                    0.9301108717918396,
                    0.6444796919822693,
                    0.09530746936798096,
                    1
                ],
                "metallicFactor" : 0,
                "roughnessFactor" : 0.4000000059604645
            }
        }
    ],
    "meshes" : [
        {
            "name" : "Curve.063",
            "primitives" : [
                {
                    "attributes" : {
                        "POSITION" : 0,
                        "NORMAL" : 1,
                        "TEXCOORD_0" : 2
                    },
                    "indices" : 3,
                    "material" : 0
                }
            ]
        },
        {
            "name" : "Curve.064",
            "primitives" : [
                {
                    "attributes" : {
                        "POSITION" : 4,
                        "NORMAL" : 5,
                        "TEXCOORD_0" : 6
                    },
                    "indices" : 7,
                    "material" : 1
                }
            ]
        },
        {
            "name" : "Curve.065",
            "primitives" : [
                {
                    "attributes" : {
                        "POSITION" : 8,
                        "NORMAL" : 9,
                        "TEXCOORD_0" : 10
                    },
                    "indices" : 11,
                    "material" : 2
                }
            ]
        }
    ],
    "accessors" : [
        {
            "bufferView" : 0,
            "componentType" : 5126,
            "count" : 34,
            "max" : [
                0.2992672622203827,
                0.05999999865889549,
                0.33244144916534424
            ],
            "min" : [
                -0.2939760088920593,
                -0.05999999865889549,
                -0.35243767499923706
            ],
            "type" : "VEC3"
        },
        {
            "bufferView" : 1,
            "componentType" : 5126,
            "count" : 34,
            "type" : "VEC3"
        },
        {
            "bufferView" : 2,
            "componentType" : 5126,
            "count" : 34,
            "type" : "VEC2"
        },
        {
            "bufferView" : 3,
            "componentType" : 5123,
            "count" : 60,
            "type" : "SCALAR"
        },
        {
            "bufferView" : 4,
            "componentType" : 5126,
            "count" : 1118,
            "max" : [
                0.14162303507328033,
                0.03999999910593033,
                0.1317804902791977
            ],
            "min" : [
                -0.2858196198940277,
                -0.03999999910593033,
                -0.2965683341026306
            ],
            "type" : "VEC3"
        },
        {
            "bufferView" : 5,
            "componentType" : 5126,
            "count" : 1118,
            "type" : "VEC3"
        },
        {
            "bufferView" : 6,
            "componentType" : 5126,
            "count" : 1118,
            "type" : "VEC2"
        },
        {
            "bufferView" : 7,
            "componentType" : 5123,
            "count" : 2064,
            "type" : "SCALAR"
        },
        {
            "bufferView" : 8,
            "componentType" : 5126,
            "count" : 1122,
            "max" : [
                0.2906592786312103,
                0.03999999910593033,
                0.2767977714538574
            ],
            "min" : [
                -0.13678337633609772,
                -0.03999999910593033,
                -0.15157929062843323
            ],
            "type" : "VEC3"
        },
        {
            "bufferView" : 9,
            "componentType" : 5126,
            "count" : 1122,
            "type" : "VEC3"
        },
        {
            "bufferView" : 10,
            "componentType" : 5126,
            "count" : 1122,
            "type" : "VEC2"
        },
        {
            "bufferView" : 11,
            "componentType" : 5123,
            "count" : 2064,
            "type" : "SCALAR"
        }
    ],
    "bufferViews" : [
        {
            "buffer" : 0,
            "byteLength" : 408,
            "byteOffset" : 0
        },
        {
            "buffer" : 0,
            "byteLength" : 408,
            "byteOffset" : 408
        },
        {
            "buffer" : 0,
            "byteLength" : 272,
            "byteOffset" : 816
        },
        {
            "buffer" : 0,
            "byteLength" : 120,
            "byteOffset" : 1088
        },
        {
            "buffer" : 0,
            "byteLength" : 13416,
            "byteOffset" : 1208
        },
        {
            "buffer" : 0,
            "byteLength" : 13416,
            "byteOffset" : 14624
        },
        {
            "buffer" : 0,
            "byteLength" : 8944,
            "byteOffset" : 28040
        },
        {
            "buffer" : 0,
            "byteLength" : 4128,
            "byteOffset" : 36984
        },
        {
            "buffer" : 0,
            "byteLength" : 13464,
            "byteOffset" : 41112
        },
        {
            "buffer" : 0,
            "byteLength" : 13464,
            "byteOffset" : 54576
        },
        {
            "buffer" : 0,
            "byteLength" : 8976,
            "byteOffset" : 68040
        },
        {
            "buffer" : 0,
            "byteLength" : 4128,
            "byteOffset" : 77016
        }
    ],
    "buffers" : [
        {
            "byteLength" : 81144,
            "uri" : "data:application/octet-stream;base64,"
        }
    ]
}
