{
    "asset" : {
        "generator" : "Khronos glTF Blender I/O v1.6.16",
        "version" : "2.0"
    },
    "scene" : 0,
    "scenes" : [
        {
            "name" : "Scene",
            "nodes" : [
                0,
                1,
                2
            ]
        }
    ],
    "nodes" : [
        {
            "mesh" : 0,
            "name" : "Curve.007",
            "translation" : [
                0.310598760843277,
                0,
                -0.3508780896663666
            ]
        },
        {
            "mesh" : 1,
            "name" : "Curve.004",
            "translation" : [
                0.310598760843277,
                0,
                -0.3508780896663666
            ]
        },
        {
            "mesh" : 2,
            "name" : "Cannon.002",
            "translation" : [
                0.310598760843277,
                0,
                -0.3508780896663666
            ]
        }
    ],
    "materials" : [
        {
            "doubleSided" : true,
            "name" : "SVGMat.029",
            "pbrMetallicRoughness" : {
                "baseColorFactor" : [
                    0.11953842639923096,
                    0.7011018991470337,
                    0.9646862745285034,
                    1
                ],
                "metallicFactor" : 0,
                "roughnessFactor" : 0.4000000059604645
            }
        },
        {
            "doubleSided" : true,
            "name" : "SVGMat.030",
            "pbrMetallicRoughness" : {
                "baseColorFactor" : [
                    0.11953842639923096,
                    0.7011018991470337,
                    0.9646862745285034,
                    1
                ],
                "metallicFactor" : 0,
                "roughnessFactor" : 0.4000000059604645
            }
        },
        {
            "doubleSided" : true,
            "name" : "SVGMat.039",
            "pbrMetallicRoughness" : {
                "baseColorFactor" : [
                    0.11953842639923096,
                    0.7011018991470337,
                    0.9646862745285034,
                    1
                ],
                "metallicFactor" : 0,
                "roughnessFactor" : 0.4000000059604645
            }
        }
    ],
    "meshes" : [
        {
            "name" : "Curve.017",
            "primitives" : [
                {
                    "attributes" : {
                        "POSITION" : 0,
                        "NORMAL" : 1,
                        "TEXCOORD_0" : 2
                    },
                    "indices" : 3,
                    "material" : 0
                }
            ]
        },
        {
            "name" : "Curve.018",
            "primitives" : [
                {
                    "attributes" : {
                        "POSITION" : 4,
                        "NORMAL" : 5,
                        "TEXCOORD_0" : 6
                    },
                    "indices" : 7,
                    "material" : 1
                }
            ]
        },
        {
            "name" : "Curve.025",
            "primitives" : [
                {
                    "attributes" : {
                        "POSITION" : 8,
                        "NORMAL" : 9,
                        "TEXCOORD_0" : 10
                    },
                    "indices" : 11,
                    "material" : 2
                }
            ]
        }
    ],
    "accessors" : [
        {
            "bufferView" : 0,
            "componentType" : 5126,
            "count" : 302,
            "max" : [
                0.05657985806465149,
                0.03999999910593033,
                0.05589926242828369
            ],
            "min" : [
                -0.05879494547843933,
                -0.03999999910593033,
                -0.059451162815093994
            ],
            "type" : "VEC3"
        },
        {
            "bufferView" : 1,
            "componentType" : 5126,
            "count" : 302,
            "type" : "VEC3"
        },
        {
            "bufferView" : 2,
            "componentType" : 5126,
            "count" : 302,
            "type" : "VEC2"
        },
        {
            "bufferView" : 3,
            "componentType" : 5123,
            "count" : 564,
            "type" : "SCALAR"
        },
        {
            "bufferView" : 4,
            "componentType" : 5126,
            "count" : 7048,
            "max" : [
                0.3086094558238983,
                0.03999999910593033,
                0.27381786704063416
            ],
            "min" : [
                -0.310598760843277,
                -0.03999999910593033,
                -0.2775109112262726
            ],
            "type" : "VEC3"
        },
        {
            "bufferView" : 5,
            "componentType" : 5126,
            "count" : 7048,
            "type" : "VEC3"
        },
        {
            "bufferView" : 6,
            "componentType" : 5126,
            "count" : 7048,
            "type" : "VEC2"
        },
        {
            "bufferView" : 7,
            "componentType" : 5123,
            "count" : 12822,
            "type" : "SCALAR"
        },
        {
            "bufferView" : 8,
            "componentType" : 5126,
            "count" : 26,
            "max" : [
                0.3172174394130707,
                0.05999999865889549,
                0.27370503544807434
            ],
            "min" : [
                -0.31920671463012695,
                -0.05999999865889549,
                -0.27736982703208923
            ],
            "type" : "VEC3"
        },
        {
            "bufferView" : 9,
            "componentType" : 5126,
            "count" : 26,
            "type" : "VEC3"
        },
        {
            "bufferView" : 10,
            "componentType" : 5126,
            "count" : 26,
            "type" : "VEC2"
        },
        {
            "bufferView" : 11,
            "componentType" : 5123,
            "count" : 60,
            "type" : "SCALAR"
        }
    ],
    "bufferViews" : [
        {
            "buffer" : 0,
            "byteLength" : 3624,
            "byteOffset" : 0
        },
        {
            "buffer" : 0,
            "byteLength" : 3624,
            "byteOffset" : 3624
        },
        {
            "buffer" : 0,
            "byteLength" : 2416,
            "byteOffset" : 7248
        },
        {
            "buffer" : 0,
            "byteLength" : 1128,
            "byteOffset" : 9664
        },
        {
            "buffer" : 0,
            "byteLength" : 84576,
            "byteOffset" : 10792
        },
        {
            "buffer" : 0,
            "byteLength" : 84576,
            "byteOffset" : 95368
        },
        {
            "buffer" : 0,
            "byteLength" : 56384,
            "byteOffset" : 179944
        },
        {
            "buffer" : 0,
            "byteLength" : 25644,
            "byteOffset" : 236328
        },
        {
            "buffer" : 0,
            "byteLength" : 312,
            "byteOffset" : 261972
        },
        {
            "buffer" : 0,
            "byteLength" : 312,
            "byteOffset" : 262284
        },
        {
            "buffer" : 0,
            "byteLength" : 208,
            "byteOffset" : 262596
        },
        {
            "buffer" : 0,
            "byteLength" : 120,
            "byteOffset" : 262804
        }
    ],
    "buffers" : [
        {
            "byteLength" : 262924,
            "uri" : "data:application/octet-stream;base64,"
        }
    ]
}
