{
    "asset" : {
        "generator" : "Khronos glTF Blender I/O v1.6.16",
        "version" : "2.0"
    },
    "scene" : 0,
    "scenes" : [
        {
            "name" : "Scene",
            "nodes" : [
                0,
                1
            ]
        }
    ],
    "nodes" : [
        {
            "mesh" : 0,
            "name" : "Curve",
            "translation" : [
                0.34407490491867065,
                0,
                -0.21089334785938263
            ]
        },
        {
            "mesh" : 1,
            "name" : "Cannon.004",
            "translation" : [
                0.34407490491867065,
                0,
                -0.21089334785938263
            ]
        }
    ],
    "materials" : [
        {
            "doubleSided" : true,
            "name" : "SVGMat.070",
            "pbrMetallicRoughness" : {
                "baseColorFactor" : [
                    0.009134058840572834,
                    0.4793201684951782,
                    0.48514994978904724,
                    1
                ],
                "metallicFactor" : 0,
                "roughnessFactor" : 0.4000000059604645
            }
        },
        {
            "doubleSided" : true,
            "name" : "SVGMat.073",
            "pbrMetallicRoughness" : {
                "baseColorFactor" : [
                    0.009134058840572834,
                    0.4793201684951782,
                    0.48514994978904724,
                    1
                ],
                "metallicFactor" : 0,
                "roughnessFactor" : 0.4000000059604645
            }
        }
    ],
    "meshes" : [
        {
            "name" : "Curve.050",
            "primitives" : [
                {
                    "attributes" : {
                        "POSITION" : 0,
                        "NORMAL" : 1,
                        "TEXCOORD_0" : 2
                    },
                    "indices" : 3,
                    "material" : 0
                }
            ]
        },
        {
            "name" : "Curve.052",
            "primitives" : [
                {
                    "attributes" : {
                        "POSITION" : 4,
                        "NORMAL" : 5,
                        "TEXCOORD_0" : 6
                    },
                    "indices" : 7,
                    "material" : 1
                }
            ]
        }
    ],
    "accessors" : [
        {
            "bufferView" : 0,
            "componentType" : 5126,
            "count" : 1240,
            "max" : [
                0.36149507761001587,
                0.029999999329447746,
                0.21032901108264923
            ],
            "min" : [
                -0.34407490491867065,
                -0.029999999329447746,
                -0.2129235714673996
            ],
            "type" : "VEC3"
        },
        {
            "bufferView" : 1,
            "componentType" : 5126,
            "count" : 1240,
            "type" : "VEC3"
        },
        {
            "bufferView" : 2,
            "componentType" : 5126,
            "count" : 1240,
            "type" : "VEC2"
        },
        {
            "bufferView" : 3,
            "componentType" : 5123,
            "count" : 2280,
            "type" : "SCALAR"
        },
        {
            "bufferView" : 4,
            "componentType" : 5126,
            "count" : 22,
            "max" : [
                0.4182511568069458,
                0.05999999865889549,
                0.2229701727628708
            ],
            "min" : [
                -0.4008309543132782,
                -0.05999999865889549,
                -0.22556470334529877
            ],
            "type" : "VEC3"
        },
        {
            "bufferView" : 5,
            "componentType" : 5126,
            "count" : 22,
            "type" : "VEC3"
        },
        {
            "bufferView" : 6,
            "componentType" : 5126,
            "count" : 22,
            "type" : "VEC2"
        },
        {
            "bufferView" : 7,
            "componentType" : 5123,
            "count" : 36,
            "type" : "SCALAR"
        }
    ],
    "bufferViews" : [
        {
            "buffer" : 0,
            "byteLength" : 14880,
            "byteOffset" : 0
        },
        {
            "buffer" : 0,
            "byteLength" : 14880,
            "byteOffset" : 14880
        },
        {
            "buffer" : 0,
            "byteLength" : 9920,
            "byteOffset" : 29760
        },
        {
            "buffer" : 0,
            "byteLength" : 4560,
            "byteOffset" : 39680
        },
        {
            "buffer" : 0,
            "byteLength" : 264,
            "byteOffset" : 44240
        },
        {
            "buffer" : 0,
            "byteLength" : 264,
            "byteOffset" : 44504
        },
        {
            "buffer" : 0,
            "byteLength" : 176,
            "byteOffset" : 44768
        },
        {
            "buffer" : 0,
            "byteLength" : 72,
            "byteOffset" : 44944
        }
    ],
    "buffers" : [
        {
            "byteLength" : 45016,
            "uri" : "data:application/octet-stream;base64,"
        }
    ]
}
