{
    "asset" : {
        "generator" : "Khronos glTF Blender I/O v1.6.16",
        "version" : "2.0"
    },
    "scene" : 0,
    "scenes" : [
        {
            "name" : "Scene",
            "nodes" : [
                0,
                1,
                2,
                3,
                4,
                5
            ]
        }
    ],
    "nodes" : [
        {
            "mesh" : 0,
            "name" : "Curve.030",
            "translation" : [
                0.3502240478992462,
                0,
                -0.3363635540008545
            ]
        },
        {
            "mesh" : 1,
            "name" : "Curve.031",
            "translation" : [
                0.3502240478992462,
                0,
                -0.3363635540008545
            ]
        },
        {
            "mesh" : 2,
            "name" : "Curve.032",
            "translation" : [
                0.3502240478992462,
                0,
                -0.3363635540008545
            ]
        },
        {
            "mesh" : 3,
            "name" : "Curve.033",
            "translation" : [
                0.3502240478992462,
                0,
                -0.3363635540008545
            ]
        },
        {
            "mesh" : 4,
            "name" : "Curve.034",
            "translation" : [
                0.3502240478992462,
                0,
                -0.3363635540008545
            ]
        },
        {
            "mesh" : 5,
            "name" : "Cannon.011",
            "translation" : [
                0.3502240478992462,
                0,
                -0.3363635540008545
            ]
        }
    ],
    "materials" : [
        {
            "doubleSided" : true,
            "name" : "SVGMat.046",
            "pbrMetallicRoughness" : {
                "baseColorFactor" : [
                    1,
                    1,
                    1,
                    1
                ],
                "metallicFactor" : 0,
                "roughnessFactor" : 0.4000000059604645
            }
        },
        {
            "doubleSided" : true,
            "name" : "SVGMat.047",
            "pbrMetallicRoughness" : {
                "baseColorFactor" : [
                    0.005181516520678997,
                    0.16202937066555023,
                    0.4507857859134674,
                    1
                ],
                "metallicFactor" : 0,
                "roughnessFactor" : 0.4000000059604645
            }
        },
        {
            "doubleSided" : true,
            "name" : "SVGMat.048",
            "pbrMetallicRoughness" : {
                "baseColorFactor" : [
                    0.017641954123973846,
                    0.25015828013420105,
                    0.5906188488006592,
                    1
                ],
                "metallicFactor" : 0,
                "roughnessFactor" : 0.4000000059604645
            }
        },
        {
            "doubleSided" : true,
            "name" : "SVGMat.049",
            "pbrMetallicRoughness" : {
                "baseColorFactor" : [
                    0.002428215928375721,
                    0.18447498977184296,
                    0.48514994978904724,
                    1
                ],
                "metallicFactor" : 0,
                "roughnessFactor" : 0.4000000059604645
            }
        },
        {
            "doubleSided" : true,
            "name" : "SVGMat.050",
            "pbrMetallicRoughness" : {
                "baseColorFactor" : [
                    0.045186202973127365,
                    0.31854677200317383,
                    0.6583748459815979,
                    1
                ],
                "metallicFactor" : 0,
                "roughnessFactor" : 0.4000000059604645
            }
        },
        {
            "doubleSided" : true,
            "name" : "SVGMat.051",
            "pbrMetallicRoughness" : {
                "baseColorFactor" : [
                    0.026241222396492958,
                    0.026241222396492958,
                    0.0423114113509655,
                    1
                ],
                "metallicFactor" : 0,
                "roughnessFactor" : 0.4000000059604645
            }
        }
    ],
    "meshes" : [
        {
            "name" : "Curve.054",
            "primitives" : [
                {
                    "attributes" : {
                        "POSITION" : 0,
                        "NORMAL" : 1,
                        "TEXCOORD_0" : 2
                    },
                    "indices" : 3,
                    "material" : 0
                }
            ]
        },
        {
            "name" : "Curve.055",
            "primitives" : [
                {
                    "attributes" : {
                        "POSITION" : 4,
                        "NORMAL" : 5,
                        "TEXCOORD_0" : 6
                    },
                    "indices" : 7,
                    "material" : 1
                }
            ]
        },
        {
            "name" : "Curve.056",
            "primitives" : [
                {
                    "attributes" : {
                        "POSITION" : 8,
                        "NORMAL" : 9,
                        "TEXCOORD_0" : 10
                    },
                    "indices" : 11,
                    "material" : 2
                }
            ]
        },
        {
            "name" : "Curve.057",
            "primitives" : [
                {
                    "attributes" : {
                        "POSITION" : 12,
                        "NORMAL" : 13,
                        "TEXCOORD_0" : 14
                    },
                    "indices" : 15,
                    "material" : 3
                }
            ]
        },
        {
            "name" : "Curve.058",
            "primitives" : [
                {
                    "attributes" : {
                        "POSITION" : 16,
                        "NORMAL" : 17,
                        "TEXCOORD_0" : 18
                    },
                    "indices" : 19,
                    "material" : 4
                }
            ]
        },
        {
            "name" : "Curve.059",
            "primitives" : [
                {
                    "attributes" : {
                        "POSITION" : 20,
                        "NORMAL" : 21,
                        "TEXCOORD_0" : 22
                    },
                    "indices" : 23,
                    "material" : 5
                }
            ]
        }
    ],
    "accessors" : [
        {
            "bufferView" : 0,
            "componentType" : 5126,
            "count" : 517,
            "max" : [
                0.3552047908306122,
                0.029999999329447746,
                0.3339933753013611
            ],
            "min" : [
                -0.35036516189575195,
                -0.029999999329447746,
                -0.35379213094711304
            ],
            "type" : "VEC3"
        },
        {
            "bufferView" : 1,
            "componentType" : 5126,
            "count" : 517,
            "type" : "VEC3"
        },
        {
            "bufferView" : 2,
            "componentType" : 5126,
            "count" : 517,
            "type" : "VEC2"
        },
        {
            "bufferView" : 3,
            "componentType" : 5123,
            "count" : 1008,
            "type" : "SCALAR"
        },
        {
            "bufferView" : 4,
            "componentType" : 5126,
            "count" : 310,
            "max" : [
                -0.06985875964164734,
                0.03500000014901161,
                0.12784947454929352
            ],
            "min" : [
                -0.23096388578414917,
                -0.03500000014901161,
                -0.011324316263198853
            ],
            "type" : "VEC3"
        },
        {
            "bufferView" : 5,
            "componentType" : 5126,
            "count" : 310,
            "type" : "VEC3"
        },
        {
            "bufferView" : 6,
            "componentType" : 5126,
            "count" : 310,
            "type" : "VEC2"
        },
        {
            "bufferView" : 7,
            "componentType" : 5123,
            "count" : 588,
            "type" : "SCALAR"
        },
        {
            "bufferView" : 8,
            "componentType" : 5126,
            "count" : 474,
            "max" : [
                0.1203346848487854,
                0.03999999910593033,
                0.2500195801258087
            ],
            "min" : [
                -0.2320604771375656,
                -0.03999999910593033,
                -0.15097054839134216
            ],
            "type" : "VEC3"
        },
        {
            "bufferView" : 9,
            "componentType" : 5126,
            "count" : 474,
            "type" : "VEC3"
        },
        {
            "bufferView" : 10,
            "componentType" : 5126,
            "count" : 474,
            "type" : "VEC2"
        },
        {
            "bufferView" : 11,
            "componentType" : 5123,
            "count" : 864,
            "type" : "SCALAR"
        },
        {
            "bufferView" : 12,
            "componentType" : 5126,
            "count" : 178,
            "max" : [
                0.12126603722572327,
                0.03500000014901161,
                -0.01064714789390564
            ],
            "min" : [
                -0.09099763631820679,
                -0.03500000014901161,
                -0.272148072719574
            ],
            "type" : "VEC3"
        },
        {
            "bufferView" : 13,
            "componentType" : 5126,
            "count" : 178,
            "type" : "VEC3"
        },
        {
            "bufferView" : 14,
            "componentType" : 5126,
            "count" : 178,
            "type" : "VEC2"
        },
        {
            "bufferView" : 15,
            "componentType" : 5123,
            "count" : 312,
            "type" : "SCALAR"
        },
        {
            "bufferView" : 16,
            "componentType" : 5126,
            "count" : 902,
            "max" : [
                0.23726396262645721,
                0.04500000178813934,
                0.2569699287414551
            ],
            "min" : [
                0.09453904628753662,
                -0.04500000178813934,
                -0.27670684456825256
            ],
            "type" : "VEC3"
        },
        {
            "bufferView" : 17,
            "componentType" : 5126,
            "count" : 902,
            "type" : "VEC3"
        },
        {
            "bufferView" : 18,
            "componentType" : 5126,
            "count" : 902,
            "type" : "VEC2"
        },
        {
            "bufferView" : 19,
            "componentType" : 5123,
            "count" : 1716,
            "type" : "SCALAR"
        },
        {
            "bufferView" : 20,
            "componentType" : 5126,
            "count" : 34,
            "max" : [
                0.35630595684051514,
                0.05999999865889549,
                0.3356863856315613
            ],
            "min" : [
                -0.3479093611240387,
                -0.05999999865889549,
                -0.36838018894195557
            ],
            "type" : "VEC3"
        },
        {
            "bufferView" : 21,
            "componentType" : 5126,
            "count" : 34,
            "type" : "VEC3"
        },
        {
            "bufferView" : 22,
            "componentType" : 5126,
            "count" : 34,
            "type" : "VEC2"
        },
        {
            "bufferView" : 23,
            "componentType" : 5123,
            "count" : 84,
            "type" : "SCALAR"
        }
    ],
    "bufferViews" : [
        {
            "buffer" : 0,
            "byteLength" : 6204,
            "byteOffset" : 0
        },
        {
            "buffer" : 0,
            "byteLength" : 6204,
            "byteOffset" : 6204
        },
        {
            "buffer" : 0,
            "byteLength" : 4136,
            "byteOffset" : 12408
        },
        {
            "buffer" : 0,
            "byteLength" : 2016,
            "byteOffset" : 16544
        },
        {
            "buffer" : 0,
            "byteLength" : 3720,
            "byteOffset" : 18560
        },
        {
            "buffer" : 0,
            "byteLength" : 3720,
            "byteOffset" : 22280
        },
        {
            "buffer" : 0,
            "byteLength" : 2480,
            "byteOffset" : 26000
        },
        {
            "buffer" : 0,
            "byteLength" : 1176,
            "byteOffset" : 28480
        },
        {
            "buffer" : 0,
            "byteLength" : 5688,
            "byteOffset" : 29656
        },
        {
            "buffer" : 0,
            "byteLength" : 5688,
            "byteOffset" : 35344
        },
        {
            "buffer" : 0,
            "byteLength" : 3792,
            "byteOffset" : 41032
        },
        {
            "buffer" : 0,
            "byteLength" : 1728,
            "byteOffset" : 44824
        },
        {
            "buffer" : 0,
            "byteLength" : 2136,
            "byteOffset" : 46552
        },
        {
            "buffer" : 0,
            "byteLength" : 2136,
            "byteOffset" : 48688
        },
        {
            "buffer" : 0,
            "byteLength" : 1424,
            "byteOffset" : 50824
        },
        {
            "buffer" : 0,
            "byteLength" : 624,
            "byteOffset" : 52248
        },
        {
            "buffer" : 0,
            "byteLength" : 10824,
            "byteOffset" : 52872
        },
        {
            "buffer" : 0,
            "byteLength" : 10824,
            "byteOffset" : 63696
        },
        {
            "buffer" : 0,
            "byteLength" : 7216,
            "byteOffset" : 74520
        },
        {
            "buffer" : 0,
            "byteLength" : 3432,
            "byteOffset" : 81736
        },
        {
            "buffer" : 0,
            "byteLength" : 408,
            "byteOffset" : 85168
        },
        {
            "buffer" : 0,
            "byteLength" : 408,
            "byteOffset" : 85576
        },
        {
            "buffer" : 0,
            "byteLength" : 272,
            "byteOffset" : 85984
        },
        {
            "buffer" : 0,
            "byteLength" : 168,
            "byteOffset" : 86256
        }
    ],
    "buffers" : [
        {
            "byteLength" : 86424,
            "uri" : "data:application/octet-stream;base64,"
        }
    ]
}
