<?xml version="1.0" encoding="utf-8"?>
<!-- Generator: Adobe Illustrator 25.2.0, SVG Export Plug-In . SVG Version: 6.00 Build 0)  -->
<svg version="1.1" id="visual" xmlns="http://www.w3.org/2000/svg" xmlns:xlink="http://www.w3.org/1999/xlink" x="0px" y="0px"
	 viewBox="0 0 960 540" style="enable-background:new 0 0 960 540;" xml:space="preserve">
<style type="text/css">
	.st0{fill:#FBAE3C;}
</style>
<g transform="translate(960, 0)">
	<path class="st0" d="M33.7,383.2C-11,422.9-82,427.9-117,387.9c-45-60,8-83-67-159c-72-72.5-140-72.5-223-149.2
		c-50-51.8-33.5-120.8-45.3-182.5h486V383.2z"/>
</g>
<g transform="translate(0, 540)">
	<path class="st0" d="M-21-392c56.2,37.4,112.4,74.9,156.1,109.1c43.8,34.2,75.2,65.2,128.2,92.6C316.2-162.8,390.8-138.8,428-92
		s37.1,116.4,37,186H-21V-392z"/>
</g>
</svg>
