<svg id="visual" viewBox="0 0 960 540" width="960" height="540" xmlns="http://www.w3.org/2000/svg" xmlns:xlink="http://www.w3.org/1999/xlink" version="1.1"><g><g transform="translate(130 302)"><path d="M53 -65.4C66.8 -51.7 74.6 -33.1 74.6 -15.7C74.7 1.7 66.9 17.9 59.3 37.1C51.6 56.3 44.1 78.5 30 84.5C15.9 90.4 -4.8 80.2 -26.9 72.7C-49.1 65.2 -72.6 60.4 -81.8 46.3C-91 32.3 -85.8 9 -78.6 -10.8C-71.5 -30.6 -62.4 -47.1 -48.9 -60.8C-35.5 -74.6 -17.8 -85.8 0.9 -86.9C19.7 -88 39.3 -79.2 53 -65.4Z" stroke="#435449" fill="none" stroke-width="14"></path></g><g transform="translate(790 341)"><path d="M43.2 -49C60.5 -37 82.1 -27.6 90.3 -11.4C98.5 4.8 93.4 27.9 82.7 48.8C71.9 69.7 55.4 88.3 37.3 89C19.3 89.6 -0.4 72.3 -18.7 61.3C-37 50.3 -53.9 45.6 -65.5 33.8C-77.2 22 -83.5 3.1 -82.3 -16.4C-81.1 -35.9 -72.5 -56 -57.5 -68.4C-42.6 -80.9 -21.3 -85.6 -4.2 -80.7C13 -75.7 25.9 -61 43.2 -49Z" stroke="#435449" fill="none" stroke-width="14"></path></g><g transform="translate(329 143)"><path d="M50.2 -56.2C65.3 -47.2 77.9 -31.6 77.1 -16.5C76.3 -1.4 62.2 13.2 52.5 30.7C42.9 48.2 37.7 68.7 25.5 75.4C13.4 82 -5.6 74.9 -23.8 67.4C-42 59.9 -59.4 52.1 -69.9 38.3C-80.3 24.5 -83.8 4.5 -76.8 -9.8C-69.7 -24.1 -52.3 -32.8 -37.7 -41.9C-23.2 -51 -11.6 -60.5 3 -64C17.6 -67.6 35.1 -65.2 50.2 -56.2Z" stroke="#435449" fill="none" stroke-width="14"></path></g><g transform="translate(557 405)"><path d="M49 -54.5C62.7 -46.9 72.3 -30.7 74.8 -13.7C77.2 3.4 72.4 21.2 64.3 38.7C56.1 56.2 44.5 73.3 28.4 79.9C12.3 86.6 -8.2 82.8 -26.6 75.2C-44.9 67.6 -61.1 56.1 -65.8 41.3C-70.5 26.4 -63.7 8.2 -58.1 -7.9C-52.5 -24.1 -48.1 -38.1 -38.6 -46.4C-29.1 -54.6 -14.6 -57.2 1.5 -59C17.7 -60.9 35.3 -62 49 -54.5Z" stroke="#435449" fill="none" stroke-width="14"></path></g></g></svg>