<svg id="visual" viewBox="0 0 2020 540" width="2020" height="540" xmlns="http://www.w3.org/2000/svg" xmlns:xlink="http://www.w3.org/1999/xlink" version="1.1"><path d="M0 82L84.2 111.7C168.3 141.3 336.7 200.7 505 202.5C673.3 204.3 841.7 148.7 1010 118.2C1178.3 87.7 1346.7 82.3 1515 89.5C1683.3 96.7 1851.7 116.3 1935.8 126.2L2020 136L2020 0L1935.8 0C1851.7 0 1683.3 0 1515 0C1346.7 0 1178.3 0 1010 0C841.7 0 673.3 0 505 0C336.7 0 168.3 0 84.2 0L0 0Z" fill="#151922"></path><path d="M0 114L84.2 141C168.3 168 336.7 222 505 242.8C673.3 263.7 841.7 251.3 1010 225.3C1178.3 199.3 1346.7 159.7 1515 165C1683.3 170.3 1851.7 220.7 1935.8 245.8L2020 271L2020 134L1935.8 124.2C1851.7 114.3 1683.3 94.7 1515 87.5C1346.7 80.3 1178.3 85.7 1010 116.2C841.7 146.7 673.3 202.3 505 200.5C336.7 198.7 168.3 139.3 84.2 109.7L0 80Z" fill="#172029"></path><path d="M0 185L84.2 211C168.3 237 336.7 289 505 317.7C673.3 346.3 841.7 351.7 1010 330.2C1178.3 308.7 1346.7 260.3 1515 262.2C1683.3 264 1851.7 316 1935.8 342L2020 368L2020 269L1935.8 243.8C1851.7 218.7 1683.3 168.3 1515 163C1346.7 157.7 1178.3 197.3 1010 223.3C841.7 249.3 673.3 261.7 505 240.8C336.7 220 168.3 166 84.2 139L0 112Z" fill="#182730"></path><path d="M0 217L84.2 246.7C168.3 276.3 336.7 335.7 505 369.8C673.3 404 841.7 413 1010 396C1178.3 379 1346.7 336 1515 336C1683.3 336 1851.7 379 1935.8 400.5L2020 422L2020 366L1935.8 340C1851.7 314 1683.3 262 1515 260.2C1346.7 258.3 1178.3 306.7 1010 328.2C841.7 349.7 673.3 344.3 505 315.7C336.7 287 168.3 235 84.2 209L0 183Z" fill="#192e36"></path><path d="M0 541L84.2 541C168.3 541 336.7 541 505 541C673.3 541 841.7 541 1010 541C1178.3 541 1346.7 541 1515 541C1683.3 541 1851.7 541 1935.8 541L2020 541L2020 420L1935.8 398.5C1851.7 377 1683.3 334 1515 334C1346.7 334 1178.3 377 1010 394C841.7 411 673.3 402 505 367.8C336.7 333.7 168.3 274.3 84.2 244.7L0 215Z" fill="#1c363a"></path></svg>