<svg id="visual" viewBox="0 0 960 540" width="960" height="540" xmlns="http://www.w3.org/2000/svg" xmlns:xlink="http://www.w3.org/1999/xlink" version="1.1"><path d="M0 77L87 87L175 33L262 93L349 66L436 87L524 50L611 87L698 39L785 66L873 44L960 60L960 0L873 0L785 0L698 0L611 0L524 0L436 0L349 0L262 0L175 0L87 0L0 0Z" fill="#1c363a"></path><path d="M0 125L87 185L175 136L262 212L349 131L436 174L524 109L611 174L698 109L785 190L873 141L960 147L960 58L873 42L785 64L698 37L611 85L524 48L436 85L349 64L262 91L175 31L87 85L0 75Z" fill="#18484b"></path><path d="M0 222L87 271L175 201L262 309L349 190L436 271L524 222L611 271L698 179L785 287L873 249L960 255L960 145L873 139L785 188L698 107L611 172L524 107L436 172L349 129L262 210L175 134L87 183L0 123Z" fill="#105b5b"></path><path d="M0 449L87 455L175 298L262 476L349 401L436 455L524 357L611 428L698 341L785 363L873 363L960 325L960 253L873 247L785 285L698 177L611 269L524 220L436 269L349 188L262 307L175 199L87 269L0 220Z" fill="#046f68"></path><path d="M0 541L87 541L175 541L262 541L349 541L436 541L524 541L611 541L698 541L785 541L873 541L960 541L960 323L873 361L785 361L698 339L611 426L524 355L436 453L349 399L262 474L175 296L87 453L0 447Z" fill="#038373"></path></svg>